<?xml version="1.0" encoding="utf-8" standalone="no"?>
<!DOCTYPE svg PUBLIC "-//W3C//DTD SVG 1.1//EN"
  "http://www.w3.org/Graphics/SVG/1.1/DTD/svg11.dtd">
<svg xmlns:xlink="http://www.w3.org/1999/xlink" width="460.8pt" height="345.6pt" viewBox="0 0 460.8 345.6" xmlns="http://www.w3.org/2000/svg" version="1.1">
 <metadata>
  <rdf:RDF xmlns:dc="http://purl.org/dc/elements/1.1/" xmlns:cc="http://creativecommons.org/ns#" xmlns:rdf="http://www.w3.org/1999/02/22-rdf-syntax-ns#">
   <cc:Work>
    <dc:type rdf:resource="http://purl.org/dc/dcmitype/StillImage"/>
    <dc:date>2023-12-16T22:29:20.424766</dc:date>
    <dc:format>image/svg+xml</dc:format>
    <dc:creator>
     <cc:Agent>
      <dc:title>Matplotlib v3.7.0, https://matplotlib.org/</dc:title>
     </cc:Agent>
    </dc:creator>
   </cc:Work>
  </rdf:RDF>
 </metadata>
 <defs>
  <style type="text/css">*{stroke-linejoin: round; stroke-linecap: butt}</style>
 </defs>
 <g id="figure_1">
  <g id="patch_1">
   <path d="M 0 345.6 
L 460.8 345.6 
L 460.8 0 
L 0 0 
z
" style="fill: #ffffff"/>
  </g>
  <g id="axes_1">
   <g id="patch_2">
    <path d="M 57.6 307.584 
L 414.72 307.584 
L 414.72 41.472 
L 57.6 41.472 
z
" style="fill: #ffffff"/>
   </g>
   <g id="matplotlib.axis_1">
    <g id="xtick_1">
     <g id="line2d_1">
      <defs>
       <path id="m9225763341" d="M 0 0 
L 0 3.5 
" style="stroke: #000000; stroke-width: 0.8"/>
      </defs>
      <g>
       <use xlink:href="#m9225763341" x="73.832727" y="307.584" style="stroke: #000000; stroke-width: 0.8"/>
      </g>
     </g>
     <g id="text_1">
      <!-- −1.00 -->
      <g transform="translate(58.510071 322.182437) scale(0.1 -0.1)">
       <defs>
        <path id="DejaVuSans-2212" d="M 678 2272 
L 4684 2272 
L 4684 1741 
L 678 1741 
L 678 2272 
z
" transform="scale(0.015625)"/>
        <path id="DejaVuSans-31" d="M 794 531 
L 1825 531 
L 1825 4091 
L 703 3866 
L 703 4441 
L 1819 4666 
L 2450 4666 
L 2450 531 
L 3481 531 
L 3481 0 
L 794 0 
L 794 531 
z
" transform="scale(0.015625)"/>
        <path id="DejaVuSans-2e" d="M 684 794 
L 1344 794 
L 1344 0 
L 684 0 
L 684 794 
z
" transform="scale(0.015625)"/>
        <path id="DejaVuSans-30" d="M 2034 4250 
Q 1547 4250 1301 3770 
Q 1056 3291 1056 2328 
Q 1056 1369 1301 889 
Q 1547 409 2034 409 
Q 2525 409 2770 889 
Q 3016 1369 3016 2328 
Q 3016 3291 2770 3770 
Q 2525 4250 2034 4250 
z
M 2034 4750 
Q 2819 4750 3233 4129 
Q 3647 3509 3647 2328 
Q 3647 1150 3233 529 
Q 2819 -91 2034 -91 
Q 1250 -91 836 529 
Q 422 1150 422 2328 
Q 422 3509 836 4129 
Q 1250 4750 2034 4750 
z
" transform="scale(0.015625)"/>
       </defs>
       <use xlink:href="#DejaVuSans-2212"/>
       <use xlink:href="#DejaVuSans-31" x="83.789062"/>
       <use xlink:href="#DejaVuSans-2e" x="147.412109"/>
       <use xlink:href="#DejaVuSans-30" x="179.199219"/>
       <use xlink:href="#DejaVuSans-30" x="242.822266"/>
      </g>
     </g>
    </g>
    <g id="xtick_2">
     <g id="line2d_2">
      <g>
       <use xlink:href="#m9225763341" x="114.414545" y="307.584" style="stroke: #000000; stroke-width: 0.8"/>
      </g>
     </g>
     <g id="text_2">
      <!-- −0.75 -->
      <g transform="translate(99.091889 322.182437) scale(0.1 -0.1)">
       <defs>
        <path id="DejaVuSans-37" d="M 525 4666 
L 3525 4666 
L 3525 4397 
L 1831 0 
L 1172 0 
L 2766 4134 
L 525 4134 
L 525 4666 
z
" transform="scale(0.015625)"/>
        <path id="DejaVuSans-35" d="M 691 4666 
L 3169 4666 
L 3169 4134 
L 1269 4134 
L 1269 2991 
Q 1406 3038 1543 3061 
Q 1681 3084 1819 3084 
Q 2600 3084 3056 2656 
Q 3513 2228 3513 1497 
Q 3513 744 3044 326 
Q 2575 -91 1722 -91 
Q 1428 -91 1123 -41 
Q 819 9 494 109 
L 494 744 
Q 775 591 1075 516 
Q 1375 441 1709 441 
Q 2250 441 2565 725 
Q 2881 1009 2881 1497 
Q 2881 1984 2565 2268 
Q 2250 2553 1709 2553 
Q 1456 2553 1204 2497 
Q 953 2441 691 2322 
L 691 4666 
z
" transform="scale(0.015625)"/>
       </defs>
       <use xlink:href="#DejaVuSans-2212"/>
       <use xlink:href="#DejaVuSans-30" x="83.789062"/>
       <use xlink:href="#DejaVuSans-2e" x="147.412109"/>
       <use xlink:href="#DejaVuSans-37" x="179.199219"/>
       <use xlink:href="#DejaVuSans-35" x="242.822266"/>
      </g>
     </g>
    </g>
    <g id="xtick_3">
     <g id="line2d_3">
      <g>
       <use xlink:href="#m9225763341" x="154.996364" y="307.584" style="stroke: #000000; stroke-width: 0.8"/>
      </g>
     </g>
     <g id="text_3">
      <!-- −0.50 -->
      <g transform="translate(139.673707 322.182437) scale(0.1 -0.1)">
       <use xlink:href="#DejaVuSans-2212"/>
       <use xlink:href="#DejaVuSans-30" x="83.789062"/>
       <use xlink:href="#DejaVuSans-2e" x="147.412109"/>
       <use xlink:href="#DejaVuSans-35" x="179.199219"/>
       <use xlink:href="#DejaVuSans-30" x="242.822266"/>
      </g>
     </g>
    </g>
    <g id="xtick_4">
     <g id="line2d_4">
      <g>
       <use xlink:href="#m9225763341" x="195.578182" y="307.584" style="stroke: #000000; stroke-width: 0.8"/>
      </g>
     </g>
     <g id="text_4">
      <!-- −0.25 -->
      <g transform="translate(180.255526 322.182437) scale(0.1 -0.1)">
       <defs>
        <path id="DejaVuSans-32" d="M 1228 531 
L 3431 531 
L 3431 0 
L 469 0 
L 469 531 
Q 828 903 1448 1529 
Q 2069 2156 2228 2338 
Q 2531 2678 2651 2914 
Q 2772 3150 2772 3378 
Q 2772 3750 2511 3984 
Q 2250 4219 1831 4219 
Q 1534 4219 1204 4116 
Q 875 4013 500 3803 
L 500 4441 
Q 881 4594 1212 4672 
Q 1544 4750 1819 4750 
Q 2544 4750 2975 4387 
Q 3406 4025 3406 3419 
Q 3406 3131 3298 2873 
Q 3191 2616 2906 2266 
Q 2828 2175 2409 1742 
Q 1991 1309 1228 531 
z
" transform="scale(0.015625)"/>
       </defs>
       <use xlink:href="#DejaVuSans-2212"/>
       <use xlink:href="#DejaVuSans-30" x="83.789062"/>
       <use xlink:href="#DejaVuSans-2e" x="147.412109"/>
       <use xlink:href="#DejaVuSans-32" x="179.199219"/>
       <use xlink:href="#DejaVuSans-35" x="242.822266"/>
      </g>
     </g>
    </g>
    <g id="xtick_5">
     <g id="line2d_5">
      <g>
       <use xlink:href="#m9225763341" x="236.16" y="307.584" style="stroke: #000000; stroke-width: 0.8"/>
      </g>
     </g>
     <g id="text_5">
      <!-- 0.00 -->
      <g transform="translate(225.027187 322.182437) scale(0.1 -0.1)">
       <use xlink:href="#DejaVuSans-30"/>
       <use xlink:href="#DejaVuSans-2e" x="63.623047"/>
       <use xlink:href="#DejaVuSans-30" x="95.410156"/>
       <use xlink:href="#DejaVuSans-30" x="159.033203"/>
      </g>
     </g>
    </g>
    <g id="xtick_6">
     <g id="line2d_6">
      <g>
       <use xlink:href="#m9225763341" x="276.741818" y="307.584" style="stroke: #000000; stroke-width: 0.8"/>
      </g>
     </g>
     <g id="text_6">
      <!-- 0.25 -->
      <g transform="translate(265.609006 322.182437) scale(0.1 -0.1)">
       <use xlink:href="#DejaVuSans-30"/>
       <use xlink:href="#DejaVuSans-2e" x="63.623047"/>
       <use xlink:href="#DejaVuSans-32" x="95.410156"/>
       <use xlink:href="#DejaVuSans-35" x="159.033203"/>
      </g>
     </g>
    </g>
    <g id="xtick_7">
     <g id="line2d_7">
      <g>
       <use xlink:href="#m9225763341" x="317.323636" y="307.584" style="stroke: #000000; stroke-width: 0.8"/>
      </g>
     </g>
     <g id="text_7">
      <!-- 0.50 -->
      <g transform="translate(306.190824 322.182437) scale(0.1 -0.1)">
       <use xlink:href="#DejaVuSans-30"/>
       <use xlink:href="#DejaVuSans-2e" x="63.623047"/>
       <use xlink:href="#DejaVuSans-35" x="95.410156"/>
       <use xlink:href="#DejaVuSans-30" x="159.033203"/>
      </g>
     </g>
    </g>
    <g id="xtick_8">
     <g id="line2d_8">
      <g>
       <use xlink:href="#m9225763341" x="357.905455" y="307.584" style="stroke: #000000; stroke-width: 0.8"/>
      </g>
     </g>
     <g id="text_8">
      <!-- 0.75 -->
      <g transform="translate(346.772642 322.182437) scale(0.1 -0.1)">
       <use xlink:href="#DejaVuSans-30"/>
       <use xlink:href="#DejaVuSans-2e" x="63.623047"/>
       <use xlink:href="#DejaVuSans-37" x="95.410156"/>
       <use xlink:href="#DejaVuSans-35" x="159.033203"/>
      </g>
     </g>
    </g>
    <g id="xtick_9">
     <g id="line2d_9">
      <g>
       <use xlink:href="#m9225763341" x="398.487273" y="307.584" style="stroke: #000000; stroke-width: 0.8"/>
      </g>
     </g>
     <g id="text_9">
      <!-- 1.00 -->
      <g transform="translate(387.35446 322.182437) scale(0.1 -0.1)">
       <use xlink:href="#DejaVuSans-31"/>
       <use xlink:href="#DejaVuSans-2e" x="63.623047"/>
       <use xlink:href="#DejaVuSans-30" x="95.410156"/>
       <use xlink:href="#DejaVuSans-30" x="159.033203"/>
      </g>
     </g>
    </g>
    <g id="text_10">
     <!-- x -->
     <g transform="translate(233.200625 335.860562) scale(0.1 -0.1)">
      <defs>
       <path id="DejaVuSans-78" d="M 3513 3500 
L 2247 1797 
L 3578 0 
L 2900 0 
L 1881 1375 
L 863 0 
L 184 0 
L 1544 1831 
L 300 3500 
L 978 3500 
L 1906 2253 
L 2834 3500 
L 3513 3500 
z
" transform="scale(0.015625)"/>
      </defs>
      <use xlink:href="#DejaVuSans-78"/>
     </g>
    </g>
   </g>
   <g id="matplotlib.axis_2">
    <g id="ytick_1">
     <g id="line2d_10">
      <defs>
       <path id="m163b9cd45c" d="M 0 0 
L -3.5 0 
" style="stroke: #000000; stroke-width: 0.8"/>
      </defs>
      <g>
       <use xlink:href="#m163b9cd45c" x="57.6" y="301.996781" style="stroke: #000000; stroke-width: 0.8"/>
      </g>
     </g>
     <g id="text_11">
      <!-- −1.00 -->
      <g transform="translate(19.954687 305.796) scale(0.1 -0.1)">
       <use xlink:href="#DejaVuSans-2212"/>
       <use xlink:href="#DejaVuSans-31" x="83.789062"/>
       <use xlink:href="#DejaVuSans-2e" x="147.412109"/>
       <use xlink:href="#DejaVuSans-30" x="179.199219"/>
       <use xlink:href="#DejaVuSans-30" x="242.822266"/>
      </g>
     </g>
    </g>
    <g id="ytick_2">
     <g id="line2d_11">
      <g>
       <use xlink:href="#m163b9cd45c" x="57.6" y="269.346673" style="stroke: #000000; stroke-width: 0.8"/>
      </g>
     </g>
     <g id="text_12">
      <!-- −0.75 -->
      <g transform="translate(19.954687 273.145892) scale(0.1 -0.1)">
       <use xlink:href="#DejaVuSans-2212"/>
       <use xlink:href="#DejaVuSans-30" x="83.789062"/>
       <use xlink:href="#DejaVuSans-2e" x="147.412109"/>
       <use xlink:href="#DejaVuSans-37" x="179.199219"/>
       <use xlink:href="#DejaVuSans-35" x="242.822266"/>
      </g>
     </g>
    </g>
    <g id="ytick_3">
     <g id="line2d_12">
      <g>
       <use xlink:href="#m163b9cd45c" x="57.6" y="236.696565" style="stroke: #000000; stroke-width: 0.8"/>
      </g>
     </g>
     <g id="text_13">
      <!-- −0.50 -->
      <g transform="translate(19.954687 240.495784) scale(0.1 -0.1)">
       <use xlink:href="#DejaVuSans-2212"/>
       <use xlink:href="#DejaVuSans-30" x="83.789062"/>
       <use xlink:href="#DejaVuSans-2e" x="147.412109"/>
       <use xlink:href="#DejaVuSans-35" x="179.199219"/>
       <use xlink:href="#DejaVuSans-30" x="242.822266"/>
      </g>
     </g>
    </g>
    <g id="ytick_4">
     <g id="line2d_13">
      <g>
       <use xlink:href="#m163b9cd45c" x="57.6" y="204.046457" style="stroke: #000000; stroke-width: 0.8"/>
      </g>
     </g>
     <g id="text_14">
      <!-- −0.25 -->
      <g transform="translate(19.954687 207.845676) scale(0.1 -0.1)">
       <use xlink:href="#DejaVuSans-2212"/>
       <use xlink:href="#DejaVuSans-30" x="83.789062"/>
       <use xlink:href="#DejaVuSans-2e" x="147.412109"/>
       <use xlink:href="#DejaVuSans-32" x="179.199219"/>
       <use xlink:href="#DejaVuSans-35" x="242.822266"/>
      </g>
     </g>
    </g>
    <g id="ytick_5">
     <g id="line2d_14">
      <g>
       <use xlink:href="#m163b9cd45c" x="57.6" y="171.39635" style="stroke: #000000; stroke-width: 0.8"/>
      </g>
     </g>
     <g id="text_15">
      <!-- 0.00 -->
      <g transform="translate(28.334375 175.195568) scale(0.1 -0.1)">
       <use xlink:href="#DejaVuSans-30"/>
       <use xlink:href="#DejaVuSans-2e" x="63.623047"/>
       <use xlink:href="#DejaVuSans-30" x="95.410156"/>
       <use xlink:href="#DejaVuSans-30" x="159.033203"/>
      </g>
     </g>
    </g>
    <g id="ytick_6">
     <g id="line2d_15">
      <g>
       <use xlink:href="#m163b9cd45c" x="57.6" y="138.746242" style="stroke: #000000; stroke-width: 0.8"/>
      </g>
     </g>
     <g id="text_16">
      <!-- 0.25 -->
      <g transform="translate(28.334375 142.54546) scale(0.1 -0.1)">
       <use xlink:href="#DejaVuSans-30"/>
       <use xlink:href="#DejaVuSans-2e" x="63.623047"/>
       <use xlink:href="#DejaVuSans-32" x="95.410156"/>
       <use xlink:href="#DejaVuSans-35" x="159.033203"/>
      </g>
     </g>
    </g>
    <g id="ytick_7">
     <g id="line2d_16">
      <g>
       <use xlink:href="#m163b9cd45c" x="57.6" y="106.096134" style="stroke: #000000; stroke-width: 0.8"/>
      </g>
     </g>
     <g id="text_17">
      <!-- 0.50 -->
      <g transform="translate(28.334375 109.895352) scale(0.1 -0.1)">
       <use xlink:href="#DejaVuSans-30"/>
       <use xlink:href="#DejaVuSans-2e" x="63.623047"/>
       <use xlink:href="#DejaVuSans-35" x="95.410156"/>
       <use xlink:href="#DejaVuSans-30" x="159.033203"/>
      </g>
     </g>
    </g>
    <g id="ytick_8">
     <g id="line2d_17">
      <g>
       <use xlink:href="#m163b9cd45c" x="57.6" y="73.446026" style="stroke: #000000; stroke-width: 0.8"/>
      </g>
     </g>
     <g id="text_18">
      <!-- 0.75 -->
      <g transform="translate(28.334375 77.245245) scale(0.1 -0.1)">
       <use xlink:href="#DejaVuSans-30"/>
       <use xlink:href="#DejaVuSans-2e" x="63.623047"/>
       <use xlink:href="#DejaVuSans-37" x="95.410156"/>
       <use xlink:href="#DejaVuSans-35" x="159.033203"/>
      </g>
     </g>
    </g>
    <g id="text_19">
     <!-- y -->
     <g transform="translate(13.875 177.487375) rotate(-90) scale(0.1 -0.1)">
      <defs>
       <path id="DejaVuSans-79" d="M 2059 -325 
Q 1816 -950 1584 -1140 
Q 1353 -1331 966 -1331 
L 506 -1331 
L 506 -850 
L 844 -850 
Q 1081 -850 1212 -737 
Q 1344 -625 1503 -206 
L 1606 56 
L 191 3500 
L 800 3500 
L 1894 763 
L 2988 3500 
L 3597 3500 
L 2059 -325 
z
" transform="scale(0.015625)"/>
      </defs>
      <use xlink:href="#DejaVuSans-79"/>
     </g>
    </g>
   </g>
   <g id="line2d_18">
    <path d="M 73.832727 171.39635 
L 78.057461 161.007542 
L 81.957215 151.969217 
L 85.85697 143.50882 
L 89.431744 136.296491 
L 92.68154 130.214383 
L 95.931335 124.602175 
L 98.856151 119.964766 
L 101.780966 115.727749 
L 104.705782 111.897308 
L 107.305618 108.837191 
L 109.905455 106.103197 
L 112.505291 103.695646 
L 115.105127 101.613627 
L 117.379984 100.057256 
L 119.65484 98.746337 
L 121.929697 97.678014 
L 124.204554 96.848762 
L 126.47941 96.254408 
L 128.754267 95.890149 
L 131.029124 95.750569 
L 133.30398 95.829669 
L 135.578837 96.120884 
L 137.853694 96.61711 
L 140.45353 97.42547 
L 143.053366 98.479501 
L 145.653202 99.766295 
L 148.578018 101.475181 
L 151.502834 103.441034 
L 154.752629 105.900766 
L 158.327404 108.906203 
L 162.227158 112.495158 
L 166.451892 116.685375 
L 171.651564 122.169039 
L 179.126093 130.422984 
L 190.825356 143.345367 
L 196.350008 149.08915 
L 200.899722 153.505267 
L 204.799476 157.005733 
L 208.374251 159.945994 
L 211.949025 162.599519 
L 215.198821 164.74109 
L 218.448616 166.60698 
L 221.373432 168.038182 
L 224.298247 169.224709 
L 227.223063 170.158917 
L 229.822899 170.77261 
L 232.422735 171.179059 
L 235.022572 171.376206 
L 237.622408 171.363054 
L 240.222244 171.139667 
L 242.82208 170.707178 
L 245.421916 170.067778 
L 248.346732 169.105207 
L 251.271548 167.891087 
L 254.196364 166.433241 
L 257.121179 164.74109 
L 260.370975 162.599519 
L 263.62077 160.199484 
L 267.195545 157.284137 
L 271.095299 153.807702 
L 275.320033 149.739469 
L 280.194726 144.727947 
L 286.369337 138.035008 
L 304.89317 117.68959 
L 309.767862 112.807178 
L 313.667617 109.193619 
L 317.242391 106.16158 
L 320.492187 103.674408 
L 323.741982 101.475181 
L 326.666798 99.766295 
L 329.266634 98.479501 
L 331.86647 97.42547 
L 334.466306 96.61711 
L 336.741163 96.120884 
L 339.01602 95.829669 
L 341.290876 95.750569 
L 343.565733 95.890149 
L 345.84059 96.254408 
L 348.115446 96.848762 
L 350.390303 97.678014 
L 352.66516 98.746337 
L 354.940016 100.057256 
L 357.214873 101.613627 
L 359.48973 103.417623 
L 362.089566 105.784407 
L 364.689402 108.477589 
L 367.289238 111.497 
L 369.889075 114.841226 
L 372.81389 118.988355 
L 375.738706 123.537427 
L 378.663522 128.480674 
L 381.913317 134.423489 
L 385.163112 140.824421 
L 388.737887 148.371312 
L 392.637641 157.174234 
L 396.537396 166.528257 
L 398.487273 171.39635 
L 398.487273 171.39635 
" clip-path="url(#p54275acf78)" style="fill: none; stroke: #1f77b4; stroke-width: 1.5; stroke-linecap: square"/>
   </g>
   <g id="line2d_19">
    <path d="M 73.832727 171.39635 
L 77.082523 131.808283 
L 79.0324 110.438747 
L 80.657297 94.650451 
L 82.282195 81.079013 
L 83.582113 72.016177 
L 84.882031 64.677807 
L 85.85697 60.35985 
L 86.831908 57.087966 
L 87.481867 55.496197 
L 88.131826 54.379013 
L 88.781785 53.736795 
L 89.431744 53.568 
L 89.756724 53.660132 
L 90.406683 54.194418 
L 91.056642 55.190003 
L 91.706601 56.638824 
L 92.35656 58.531052 
L 93.331499 62.175081 
L 94.306437 66.744574 
L 95.606355 74.183028 
L 96.906274 83.023603 
L 98.531171 95.790064 
L 100.481048 113.143082 
L 103.080885 138.598597 
L 109.255495 200.217545 
L 111.205373 217.360686 
L 112.83027 230.021829 
L 114.455168 240.906212 
L 115.755086 248.180312 
L 117.055004 254.081063 
L 118.029943 257.564803 
L 119.004881 260.219824 
L 119.65484 261.523822 
L 120.304799 262.453357 
L 120.954758 263.008761 
L 121.604717 263.191901 
L 122.254676 263.006157 
L 122.904636 262.45639 
L 123.554595 261.548908 
L 124.204554 260.291424 
L 125.179492 257.769145 
L 126.154431 254.516143 
L 127.129369 250.57465 
L 128.429287 244.331887 
L 130.054185 235.123337 
L 131.679083 224.614905 
L 133.953939 208.301062 
L 142.728387 143.258934 
L 144.678264 131.533517 
L 146.303161 123.208134 
L 147.603079 117.617087 
L 148.902998 113.048 
L 149.877936 110.320232 
L 150.852875 108.205905 
L 151.827813 106.711262 
L 152.477772 106.059456 
L 153.127731 105.681883 
L 153.77769 105.575997 
L 154.427649 105.738127 
L 155.077609 106.163515 
L 155.727568 106.846346 
L 156.702506 108.338089 
L 157.677445 110.366373 
L 158.652383 112.899536 
L 159.952301 117.000005 
L 161.252219 121.838971 
L 162.877117 128.765901 
L 164.826994 138.072911 
L 168.07679 154.945318 
L 171.976544 175.128075 
L 174.2514 185.756619 
L 176.201278 193.721455 
L 177.826175 199.36326 
L 179.126093 203.147098 
L 180.426011 206.23975 
L 181.40095 208.090329 
L 182.375889 209.532769 
L 183.350827 210.566199 
L 184.325766 211.194008 
L 184.975725 211.390745 
L 185.625684 211.413664 
L 186.275643 211.266718 
L 186.925602 210.954579 
L 187.900541 210.18852 
L 188.875479 209.083722 
L 189.850418 207.663892 
L 191.150336 205.326576 
L 192.450254 202.544778 
L 194.075152 198.555736 
L 196.350008 192.291277 
L 203.499558 171.892125 
L 205.449435 167.220645 
L 207.074333 163.878739 
L 208.374251 161.61551 
L 209.674169 159.742809 
L 210.974087 158.273961 
L 211.949025 157.439805 
L 212.923964 156.832868 
L 213.898903 156.448115 
L 214.873841 156.27771 
L 215.84878 156.311189 
L 216.823718 156.535655 
L 218.123636 157.105648 
L 219.423554 157.947033 
L 221.048452 159.309836 
L 222.998329 161.271286 
L 229.822899 168.462119 
L 231.447797 169.726898 
L 232.747715 170.506224 
L 234.047633 171.051371 
L 235.347551 171.345013 
L 236.647469 171.377856 
L 237.947387 171.148863 
L 239.247305 170.665276 
L 240.547224 169.942445 
L 242.172121 168.738345 
L 243.797019 167.257758 
L 246.071876 164.867537 
L 250.946568 159.616111 
L 252.571466 158.194477 
L 253.871384 157.292274 
L 255.171302 156.650367 
L 256.146241 156.365493 
L 257.121179 156.266805 
L 258.096118 156.367961 
L 259.071057 156.680261 
L 260.045995 157.212435 
L 261.020934 157.970471 
L 261.995872 158.957458 
L 263.29579 160.629278 
L 264.595708 162.699529 
L 265.895627 165.149928 
L 267.520524 168.703749 
L 269.470401 173.585153 
L 271.745258 179.90894 
L 278.569828 199.392581 
L 280.194726 203.277927 
L 281.494644 205.955359 
L 282.794562 208.170597 
L 283.7695 209.48822 
L 284.744439 210.4826 
L 285.719378 211.130979 
L 286.369337 211.361149 
L 287.019296 211.423702 
L 287.669255 211.314322 
L 288.319214 211.029427 
L 288.969173 210.566199 
L 289.944111 209.532769 
L 290.91905 208.090329 
L 291.893989 206.23975 
L 293.193907 203.147098 
L 294.493825 199.36326 
L 295.793743 194.926746 
L 297.41864 188.543985 
L 299.368518 179.833123 
L 301.643374 168.581141 
L 309.442883 128.765901 
L 311.067781 121.838971 
L 312.692678 115.901761 
L 313.992596 112.001181 
L 314.967535 109.632528 
L 315.942473 107.779789 
L 316.917412 106.473154 
L 317.567371 105.918253 
L 318.21733 105.623832 
L 318.867289 105.595183 
L 319.517248 105.836523 
L 320.167207 106.350965 
L 320.817166 107.140486 
L 321.467125 108.205905 
L 322.442064 110.320232 
L 323.417002 113.048 
L 324.391941 116.376884 
L 325.691859 121.717793 
L 326.991777 128.033756 
L 328.616675 137.178452 
L 330.566552 149.726704 
L 332.841409 166.019144 
L 337.066143 198.441988 
L 339.990958 220.114951 
L 341.940835 233.116232 
L 343.565733 242.607964 
L 344.865651 249.115948 
L 346.165569 254.516143 
L 347.140508 257.769145 
L 348.115446 260.291424 
L 348.765405 261.548908 
L 349.415364 262.45639 
L 350.065324 263.006157 
L 350.715283 263.191901 
L 351.365242 263.008761 
L 352.015201 262.453357 
L 352.66516 261.523822 
L 353.315119 260.219824 
L 354.290057 257.564803 
L 355.264996 254.081063 
L 356.239934 249.787245 
L 357.539853 242.848966 
L 358.839771 234.602703 
L 360.464668 222.621626 
L 362.414545 206.13811 
L 364.689402 184.692315 
L 368.589156 145.198142 
L 371.838952 113.143082 
L 373.788829 95.790064 
L 375.413726 83.023603 
L 376.713645 74.183028 
L 378.013563 66.744574 
L 378.988501 62.175081 
L 379.96344 58.531052 
L 380.938378 55.858333 
L 381.588337 54.63501 
L 382.238296 53.869179 
L 382.888256 53.568 
L 383.213235 53.593391 
L 383.863194 53.998584 
L 384.513153 54.878212 
L 385.163112 56.232858 
L 385.813071 58.061169 
L 386.78801 61.684015 
L 387.762948 66.345395 
L 388.737887 72.016177 
L 390.037805 81.079013 
L 391.337723 91.748539 
L 392.962621 107.119896 
L 394.912498 128.089702 
L 397.187355 155.142687 
L 398.487273 171.39635 
L 398.487273 171.39635 
" clip-path="url(#p54275acf78)" style="fill: none; stroke: #ff7f0e; stroke-width: 1.5; stroke-linecap: square"/>
   </g>
   <g id="line2d_20">
    <path d="M 73.832727 171.39635 
L 76.107584 226.275324 
L 77.407502 252.878979 
L 78.382441 269.276479 
L 79.357379 282.012239 
L 80.007338 288.261815 
L 80.657297 292.616509 
L 81.307256 295.023202 
L 81.632236 295.488 
L 81.957215 295.46007 
L 82.282195 294.941588 
L 82.607174 293.93667 
L 83.257133 290.493537 
L 83.907093 285.201276 
L 84.557052 278.159192 
L 85.53199 264.598 
L 86.506929 247.916574 
L 87.806847 221.92406 
L 90.406683 163.657801 
L 92.35656 121.759948 
L 93.656478 97.976519 
L 94.631417 83.368991 
L 95.606355 72.072752 
L 96.256314 66.562309 
L 96.906274 62.756241 
L 97.556233 60.698983 
L 97.881212 60.332351 
L 98.206192 60.406827 
L 98.531171 60.92005 
L 98.856151 61.867925 
L 99.50611 65.042732 
L 100.156069 69.864892 
L 100.806028 76.242544 
L 101.780966 88.466537 
L 102.755905 103.445442 
L 104.055823 126.705922 
L 106.655659 178.599094 
L 108.605536 215.715416 
L 109.905455 236.689502 
L 110.880393 249.517911 
L 111.855332 259.387366 
L 112.505291 264.167992 
L 113.15525 267.43524 
L 113.480229 268.489152 
L 113.805209 269.153205 
L 114.130188 269.426817 
L 114.455168 269.310964 
L 114.780147 268.808173 
L 115.105127 267.922495 
L 115.755086 265.026189 
L 116.405045 260.683992 
L 117.055004 254.980163 
L 118.029943 244.106257 
L 119.329861 225.973918 
L 120.954758 199.233536 
L 124.854513 132.469216 
L 126.154431 114.293506 
L 127.129369 103.233313 
L 128.104308 94.777864 
L 128.754267 90.717717 
L 129.404226 87.979468 
L 129.729206 87.11551 
L 130.054185 86.590646 
L 130.379165 86.404906 
L 130.704144 86.556964 
L 131.029124 87.044153 
L 131.354103 87.862482 
L 132.004062 90.470121 
L 132.654021 94.322509 
L 133.30398 99.343141 
L 134.278919 108.854116 
L 135.578837 124.616962 
L 137.203735 147.724352 
L 141.103489 204.857116 
L 142.403407 220.245499 
L 143.378346 229.548433 
L 144.353284 236.602694 
L 145.003243 239.95172 
L 145.653202 242.170807 
L 145.978182 242.849859 
L 146.303161 243.240645 
L 146.628141 243.343665 
L 146.95312 243.160572 
L 147.2781 242.694156 
L 147.928059 240.928087 
L 148.578018 238.0897 
L 149.227977 234.239763 
L 150.202916 226.738467 
L 151.177854 217.449189 
L 152.477772 202.929448 
L 155.077609 170.370659 
L 157.027486 147.009277 
L 158.327404 133.765624 
L 159.302342 125.625974 
L 160.277281 119.308853 
L 160.92724 116.201896 
L 161.577199 114.020987 
L 162.227158 112.785154 
L 162.552138 112.523332 
L 162.877117 112.49788 
L 163.202097 112.706837 
L 163.527076 113.14731 
L 164.177035 114.706689 
L 164.826994 117.13505 
L 165.476953 120.378119 
L 166.451892 126.621866 
L 167.75181 137.090497 
L 169.376708 152.543923 
L 173.276462 190.92268 
L 174.57638 201.295367 
L 175.551319 207.593043 
L 176.526257 212.408706 
L 177.176216 214.730797 
L 177.826175 216.314629 
L 178.476134 217.150629 
L 178.801114 217.288603 
L 179.126093 217.241642 
L 179.451073 217.011994 
L 180.101032 216.017242 
L 180.750991 214.336503 
L 181.40095 212.01247 
L 182.375889 207.437024 
L 183.350827 201.745119 
L 184.650745 192.846472 
L 190.175397 152.847534 
L 191.150336 147.686096 
L 192.125274 143.588691 
L 192.775233 141.502206 
L 193.425192 139.955851 
L 194.075152 138.959427 
L 194.725111 138.513207 
L 195.05009 138.49396 
L 195.37507 138.608176 
L 196.025029 139.226425 
L 196.674988 140.341695 
L 197.324947 141.920051 
L 198.299885 145.064928 
L 199.274824 148.996547 
L 200.574742 155.141136 
L 205.774414 180.97321 
L 207.074333 185.634603 
L 208.049271 188.27961 
L 208.69923 189.603252 
L 209.349189 190.56486 
L 209.999148 191.163391 
L 210.649107 191.404489 
L 211.299066 191.300161 
L 211.949025 190.868334 
L 212.598984 190.132315 
L 213.573923 188.520431 
L 214.548862 186.399169 
L 215.84878 182.996794 
L 220.723473 169.490173 
L 222.023391 166.907919 
L 222.998329 165.466651 
L 223.973268 164.479654 
L 224.623227 164.07492 
L 225.273186 163.866532 
L 225.923145 163.84416 
L 226.573104 163.993477 
L 227.548043 164.499444 
L 228.522981 165.278406 
L 230.147879 166.95489 
L 232.747715 169.71227 
L 234.047633 170.720757 
L 235.022572 171.196526 
L 235.99751 171.392239 
L 236.972449 171.293994 
L 237.947387 170.908762 
L 238.922326 170.264018 
L 240.222244 169.083511 
L 244.771957 164.499444 
L 245.746896 163.993477 
L 246.396855 163.84416 
L 247.046814 163.866532 
L 247.696773 164.07492 
L 248.346732 164.479654 
L 248.996691 165.086684 
L 249.97163 166.378023 
L 250.946568 168.110028 
L 252.246486 171.030095 
L 253.871384 175.41877 
L 257.771138 186.399169 
L 258.746077 188.520431 
L 259.721016 190.132315 
L 260.370975 190.868334 
L 261.020934 191.300161 
L 261.670893 191.404489 
L 262.320852 191.163391 
L 262.970811 190.56486 
L 263.62077 189.603252 
L 264.270729 188.27961 
L 265.245667 185.634603 
L 266.220606 182.250677 
L 267.520524 176.750798 
L 269.145422 168.73025 
L 272.720197 150.450503 
L 274.020115 145.064928 
L 274.995053 141.920051 
L 275.645012 140.341695 
L 276.294971 139.226425 
L 276.94493 138.608176 
L 277.26991 138.49396 
L 277.594889 138.513207 
L 277.919869 138.667891 
L 278.569828 139.388659 
L 279.219787 140.660675 
L 279.869746 142.478921 
L 280.844685 146.195896 
L 281.819623 151.01725 
L 283.119541 158.92198 
L 284.744439 170.535955 
L 288.644193 199.6413 
L 289.944111 207.437024 
L 290.91905 212.01247 
L 291.569009 214.336503 
L 292.218968 216.017242 
L 292.868927 217.011994 
L 293.193907 217.241642 
L 293.518886 217.288603 
L 293.843866 217.150629 
L 294.168845 216.826219 
L 294.818804 215.615886 
L 295.468763 213.660946 
L 296.118722 210.977229 
L 297.093661 205.650483 
L 298.0686 198.897339 
L 299.368518 188.036071 
L 300.993415 172.380501 
L 304.56819 137.090497 
L 305.868108 126.621866 
L 306.843047 120.378119 
L 307.817985 115.815339 
L 308.467944 113.815493 
L 309.117903 112.706837 
L 309.442883 112.49788 
L 309.767862 112.523332 
L 310.092842 112.785154 
L 310.417821 113.284355 
L 311.067781 114.994132 
L 311.71774 117.641415 
L 312.367699 121.199413 
L 313.342637 128.147697 
L 314.317576 136.842297 
L 315.617494 150.669137 
L 317.567371 174.484734 
L 320.492187 210.444186 
L 321.792105 223.823439 
L 322.767043 231.958678 
L 323.741982 238.0897 
L 324.391941 240.928087 
L 325.0419 242.694156 
L 325.36688 243.160572 
L 325.691859 243.343665 
L 326.016839 243.240645 
L 326.341818 242.849859 
L 326.666798 242.170807 
L 327.316757 239.95172 
L 327.966716 236.602694 
L 328.616675 232.161632 
L 329.591613 223.580091 
L 330.566552 212.934428 
L 331.86647 196.133067 
L 333.816347 167.444734 
L 336.416183 128.997187 
L 337.716102 112.496468 
L 338.69104 102.262763 
L 339.665979 94.322509 
L 340.315938 90.470121 
L 340.965897 87.862482 
L 341.290876 87.044153 
L 341.615856 86.556964 
L 341.940835 86.404906 
L 342.265815 86.590646 
L 342.590794 87.11551 
L 342.915774 87.979468 
L 343.565733 90.717717 
L 344.215692 94.777864 
L 344.865651 100.110747 
L 345.84059 110.337218 
L 346.815528 122.943494 
L 348.115446 142.728236 
L 350.065324 176.293276 
L 352.66516 220.917855 
L 353.965078 239.92645 
L 354.940016 251.649689 
L 355.914955 260.683992 
L 356.564914 265.026189 
L 357.214873 267.922495 
L 357.539853 268.808173 
L 357.864832 269.310964 
L 358.189812 269.426817 
L 358.514791 269.153205 
L 358.839771 268.489152 
L 359.16475 267.43524 
L 359.814709 264.167992 
L 360.464668 259.387366 
L 361.114627 253.15393 
L 362.089566 241.270907 
L 363.064505 226.694524 
L 364.364423 203.917628 
L 366.639279 158.881417 
L 368.914136 114.683179 
L 370.214054 93.179908 
L 371.188993 79.979409 
L 372.163931 69.864892 
L 372.81389 65.042732 
L 373.463849 61.867925 
L 373.788829 60.92005 
L 374.113808 60.406827 
L 374.438788 60.332351 
L 374.763767 60.698983 
L 375.088747 61.507331 
L 375.738706 64.442795 
L 376.388665 69.108351 
L 377.038624 75.445635 
L 378.013563 87.891485 
L 378.988501 103.50202 
L 380.288419 128.329691 
L 382.238296 171.026758 
L 385.163112 235.370297 
L 386.46303 259.354971 
L 387.437969 274.020409 
L 388.412907 285.201276 
L 389.062867 290.493537 
L 389.712826 293.93667 
L 390.037805 294.941588 
L 390.362785 295.46007 
L 390.687764 295.488 
L 391.012744 295.023202 
L 391.337723 294.065457 
L 391.987682 290.680071 
L 392.637641 285.369357 
L 393.2876 278.201893 
L 394.262539 264.19336 
L 395.237477 246.689628 
L 396.537396 218.941341 
L 398.487273 171.39635 
L 398.487273 171.39635 
" clip-path="url(#p54275acf78)" style="fill: none; stroke: #2ca02c; stroke-width: 1.5; stroke-linecap: square"/>
   </g>
   <g id="patch_3">
    <path d="M 57.6 307.584 
L 57.6 41.472 
" style="fill: none; stroke: #000000; stroke-width: 0.8; stroke-linejoin: miter; stroke-linecap: square"/>
   </g>
   <g id="patch_4">
    <path d="M 414.72 307.584 
L 414.72 41.472 
" style="fill: none; stroke: #000000; stroke-width: 0.8; stroke-linejoin: miter; stroke-linecap: square"/>
   </g>
   <g id="patch_5">
    <path d="M 57.6 307.584 
L 414.72 307.584 
" style="fill: none; stroke: #000000; stroke-width: 0.8; stroke-linejoin: miter; stroke-linecap: square"/>
   </g>
   <g id="patch_6">
    <path d="M 57.6 41.472 
L 414.72 41.472 
" style="fill: none; stroke: #000000; stroke-width: 0.8; stroke-linejoin: miter; stroke-linecap: square"/>
   </g>
   <g id="legend_1">
    <g id="patch_7">
     <path d="M 198.592031 302.584 
L 273.727969 302.584 
Q 275.727969 302.584 275.727969 300.584 
L 275.727969 257.549625 
Q 275.727969 255.549625 273.727969 255.549625 
L 198.592031 255.549625 
Q 196.592031 255.549625 196.592031 257.549625 
L 196.592031 300.584 
Q 196.592031 302.584 198.592031 302.584 
z
" style="fill: #ffffff; opacity: 0.8; stroke: #cccccc; stroke-linejoin: miter"/>
    </g>
    <g id="line2d_21">
     <path d="M 200.592031 263.648062 
L 210.592031 263.648062 
L 220.592031 263.648062 
" style="fill: none; stroke: #1f77b4; stroke-width: 1.5; stroke-linecap: square"/>
    </g>
    <g id="text_20">
     <!-- a=3.14 -->
     <g transform="translate(228.592031 267.148062) scale(0.1 -0.1)">
      <defs>
       <path id="DejaVuSans-61" d="M 2194 1759 
Q 1497 1759 1228 1600 
Q 959 1441 959 1056 
Q 959 750 1161 570 
Q 1363 391 1709 391 
Q 2188 391 2477 730 
Q 2766 1069 2766 1631 
L 2766 1759 
L 2194 1759 
z
M 3341 1997 
L 3341 0 
L 2766 0 
L 2766 531 
Q 2569 213 2275 61 
Q 1981 -91 1556 -91 
Q 1019 -91 701 211 
Q 384 513 384 1019 
Q 384 1609 779 1909 
Q 1175 2209 1959 2209 
L 2766 2209 
L 2766 2266 
Q 2766 2663 2505 2880 
Q 2244 3097 1772 3097 
Q 1472 3097 1187 3025 
Q 903 2953 641 2809 
L 641 3341 
Q 956 3463 1253 3523 
Q 1550 3584 1831 3584 
Q 2591 3584 2966 3190 
Q 3341 2797 3341 1997 
z
" transform="scale(0.015625)"/>
       <path id="DejaVuSans-3d" d="M 678 2906 
L 4684 2906 
L 4684 2381 
L 678 2381 
L 678 2906 
z
M 678 1631 
L 4684 1631 
L 4684 1100 
L 678 1100 
L 678 1631 
z
" transform="scale(0.015625)"/>
       <path id="DejaVuSans-33" d="M 2597 2516 
Q 3050 2419 3304 2112 
Q 3559 1806 3559 1356 
Q 3559 666 3084 287 
Q 2609 -91 1734 -91 
Q 1441 -91 1130 -33 
Q 819 25 488 141 
L 488 750 
Q 750 597 1062 519 
Q 1375 441 1716 441 
Q 2309 441 2620 675 
Q 2931 909 2931 1356 
Q 2931 1769 2642 2001 
Q 2353 2234 1838 2234 
L 1294 2234 
L 1294 2753 
L 1863 2753 
Q 2328 2753 2575 2939 
Q 2822 3125 2822 3475 
Q 2822 3834 2567 4026 
Q 2313 4219 1838 4219 
Q 1578 4219 1281 4162 
Q 984 4106 628 3988 
L 628 4550 
Q 988 4650 1302 4700 
Q 1616 4750 1894 4750 
Q 2613 4750 3031 4423 
Q 3450 4097 3450 3541 
Q 3450 3153 3228 2886 
Q 3006 2619 2597 2516 
z
" transform="scale(0.015625)"/>
       <path id="DejaVuSans-34" d="M 2419 4116 
L 825 1625 
L 2419 1625 
L 2419 4116 
z
M 2253 4666 
L 3047 4666 
L 3047 1625 
L 3713 1625 
L 3713 1100 
L 3047 1100 
L 3047 0 
L 2419 0 
L 2419 1100 
L 313 1100 
L 313 1709 
L 2253 4666 
z
" transform="scale(0.015625)"/>
      </defs>
      <use xlink:href="#DejaVuSans-61"/>
      <use xlink:href="#DejaVuSans-3d" x="61.279297"/>
      <use xlink:href="#DejaVuSans-33" x="145.068359"/>
      <use xlink:href="#DejaVuSans-2e" x="208.691406"/>
      <use xlink:href="#DejaVuSans-31" x="240.478516"/>
      <use xlink:href="#DejaVuSans-34" x="304.101562"/>
     </g>
    </g>
    <g id="line2d_22">
     <path d="M 200.592031 278.326188 
L 210.592031 278.326188 
L 220.592031 278.326188 
" style="fill: none; stroke: #ff7f0e; stroke-width: 1.5; stroke-linecap: square"/>
    </g>
    <g id="text_21">
     <!-- a=15.71 -->
     <g transform="translate(228.592031 281.826188) scale(0.1 -0.1)">
      <use xlink:href="#DejaVuSans-61"/>
      <use xlink:href="#DejaVuSans-3d" x="61.279297"/>
      <use xlink:href="#DejaVuSans-31" x="145.068359"/>
      <use xlink:href="#DejaVuSans-35" x="208.691406"/>
      <use xlink:href="#DejaVuSans-2e" x="272.314453"/>
      <use xlink:href="#DejaVuSans-37" x="304.101562"/>
      <use xlink:href="#DejaVuSans-31" x="367.724609"/>
     </g>
    </g>
    <g id="line2d_23">
     <path d="M 200.592031 293.004312 
L 210.592031 293.004312 
L 220.592031 293.004312 
" style="fill: none; stroke: #2ca02c; stroke-width: 1.5; stroke-linecap: square"/>
    </g>
    <g id="text_22">
     <!-- a=31.42 -->
     <g transform="translate(228.592031 296.504312) scale(0.1 -0.1)">
      <use xlink:href="#DejaVuSans-61"/>
      <use xlink:href="#DejaVuSans-3d" x="61.279297"/>
      <use xlink:href="#DejaVuSans-33" x="145.068359"/>
      <use xlink:href="#DejaVuSans-31" x="208.691406"/>
      <use xlink:href="#DejaVuSans-2e" x="272.314453"/>
      <use xlink:href="#DejaVuSans-34" x="304.101562"/>
      <use xlink:href="#DejaVuSans-32" x="367.724609"/>
     </g>
    </g>
   </g>
  </g>
 </g>
 <defs>
  <clipPath id="p54275acf78">
   <rect x="57.6" y="41.472" width="357.12" height="266.112"/>
  </clipPath>
 </defs>
</svg>
