<?xml version="1.0" encoding="utf-8" standalone="no"?>
<!DOCTYPE svg PUBLIC "-//W3C//DTD SVG 1.1//EN"
  "http://www.w3.org/Graphics/SVG/1.1/DTD/svg11.dtd">
<svg xmlns:xlink="http://www.w3.org/1999/xlink" width="460.8pt" height="345.6pt" viewBox="0 0 460.8 345.6" xmlns="http://www.w3.org/2000/svg" version="1.1">
 <metadata>
  <rdf:RDF xmlns:dc="http://purl.org/dc/elements/1.1/" xmlns:cc="http://creativecommons.org/ns#" xmlns:rdf="http://www.w3.org/1999/02/22-rdf-syntax-ns#">
   <cc:Work>
    <dc:type rdf:resource="http://purl.org/dc/dcmitype/StillImage"/>
    <dc:date>2023-12-18T23:19:11.902514</dc:date>
    <dc:format>image/svg+xml</dc:format>
    <dc:creator>
     <cc:Agent>
      <dc:title>Matplotlib v3.7.0, https://matplotlib.org/</dc:title>
     </cc:Agent>
    </dc:creator>
   </cc:Work>
  </rdf:RDF>
 </metadata>
 <defs>
  <style type="text/css">*{stroke-linejoin: round; stroke-linecap: butt}</style>
 </defs>
 <g id="figure_1">
  <g id="patch_1">
   <path d="M 0 345.6 
L 460.8 345.6 
L 460.8 0 
L 0 0 
z
" style="fill: #ffffff"/>
  </g>
  <g id="axes_1">
   <g id="patch_2">
    <path d="M 57.6 307.584 
L 414.72 307.584 
L 414.72 41.472 
L 57.6 41.472 
z
" style="fill: #ffffff"/>
   </g>
   <g id="PathCollection_1">
    <defs>
     <path id="me25cb50711" d="M 0 3 
C 0.795609 3 1.55874 2.683901 2.12132 2.12132 
C 2.683901 1.55874 3 0.795609 3 0 
C 3 -0.795609 2.683901 -1.55874 2.12132 -2.12132 
C 1.55874 -2.683901 0.795609 -3 0 -3 
C -0.795609 -3 -1.55874 -2.683901 -2.12132 -2.12132 
C -2.683901 -1.55874 -3 -0.795609 -3 0 
C -3 0.795609 -2.683901 1.55874 -2.12132 2.12132 
C -1.55874 2.683901 -0.795609 3 0 3 
z
" style="stroke: #1f77b4"/>
    </defs>
    <g clip-path="url(#p52db8ad1dd)">
     <use xlink:href="#me25cb50711" x="75.434171" y="224.104779" style="fill: #1f77b4; stroke: #1f77b4"/>
     <use xlink:href="#me25cb50711" x="259.327907" y="209.101309" style="fill: #1f77b4; stroke: #1f77b4"/>
     <use xlink:href="#me25cb50711" x="76.326245" y="201.760696" style="fill: #1f77b4; stroke: #1f77b4"/>
     <use xlink:href="#me25cb50711" x="73.958771" y="218.869162" style="fill: #1f77b4; stroke: #1f77b4"/>
     <use xlink:href="#me25cb50711" x="217.882449" y="185.617587" style="fill: #1f77b4; stroke: #1f77b4"/>
     <use xlink:href="#me25cb50711" x="77.940623" y="183.230114" style="fill: #1f77b4; stroke: #1f77b4"/>
     <use xlink:href="#me25cb50711" x="274.312146" y="196.958052" style="fill: #1f77b4; stroke: #1f77b4"/>
     <use xlink:href="#me25cb50711" x="75.123209" y="214.674526" style="fill: #1f77b4; stroke: #1f77b4"/>
     <use xlink:href="#me25cb50711" x="217.930407" y="188.532876" style="fill: #1f77b4; stroke: #1f77b4"/>
     <use xlink:href="#me25cb50711" x="78.490362" y="203.55401" style="fill: #1f77b4; stroke: #1f77b4"/>
     <use xlink:href="#me25cb50711" x="75.286826" y="182.781786" style="fill: #1f77b4; stroke: #1f77b4"/>
     <use xlink:href="#me25cb50711" x="76.440769" y="218.420834" style="fill: #1f77b4; stroke: #1f77b4"/>
     <use xlink:href="#me25cb50711" x="79.339385" y="224.2207" style="fill: #1f77b4; stroke: #1f77b4"/>
     <use xlink:href="#me25cb50711" x="217.935936" y="148.00866" style="fill: #1f77b4; stroke: #1f77b4"/>
     <use xlink:href="#me25cb50711" x="218.105093" y="168.710076" style="fill: #1f77b4; stroke: #1f77b4"/>
     <use xlink:href="#me25cb50711" x="217.930147" y="189.147408" style="fill: #1f77b4; stroke: #1f77b4"/>
     <use xlink:href="#me25cb50711" x="217.788876" y="190.940722" style="fill: #1f77b4; stroke: #1f77b4"/>
     <use xlink:href="#me25cb50711" x="277.289051" y="214.777576" style="fill: #1f77b4; stroke: #1f77b4"/>
     <use xlink:href="#me25cb50711" x="217.849821" y="188.887163" style="fill: #1f77b4; stroke: #1f77b4"/>
     <use xlink:href="#me25cb50711" x="217.811002" y="107.27832" style="fill: #1f77b4; stroke: #1f77b4"/>
     <use xlink:href="#me25cb50711" x="88.399804" y="220.742316" style="fill: #1f77b4; stroke: #1f77b4"/>
     <use xlink:href="#me25cb50711" x="277.288571" y="128.913452" style="fill: #1f77b4; stroke: #1f77b4"/>
     <use xlink:href="#me25cb50711" x="277.55756" y="207.716404" style="fill: #1f77b4; stroke: #1f77b4"/>
     <use xlink:href="#me25cb50711" x="73.908163" y="213.77787" style="fill: #1f77b4; stroke: #1f77b4"/>
     <use xlink:href="#me25cb50711" x="74.337812" y="222.311465" style="fill: #1f77b4; stroke: #1f77b4"/>
     <use xlink:href="#me25cb50711" x="381.725376" y="229.600641" style="fill: #1f77b4; stroke: #1f77b4"/>
     <use xlink:href="#me25cb50711" x="284.815248" y="135.862542" style="fill: #1f77b4; stroke: #1f77b4"/>
     <use xlink:href="#me25cb50711" x="133.521334" y="210.410213" style="fill: #1f77b4; stroke: #1f77b4"/>
     <use xlink:href="#me25cb50711" x="299.760764" y="189.506712" style="fill: #1f77b4; stroke: #1f77b4"/>
     <use xlink:href="#me25cb50711" x="225.058937" y="110.752865" style="fill: #1f77b4; stroke: #1f77b4"/>
     <use xlink:href="#me25cb50711" x="262.202273" y="213.100183" style="fill: #1f77b4; stroke: #1f77b4"/>
     <use xlink:href="#me25cb50711" x="217.735312" y="148.344906" style="fill: #1f77b4; stroke: #1f77b4"/>
     <use xlink:href="#me25cb50711" x="218.026975" y="186.5296" style="fill: #1f77b4; stroke: #1f77b4"/>
     <use xlink:href="#me25cb50711" x="277.469862" y="190.681455" style="fill: #1f77b4; stroke: #1f77b4"/>
     <use xlink:href="#me25cb50711" x="80.842663" y="182.557622" style="fill: #1f77b4; stroke: #1f77b4"/>
     <use xlink:href="#me25cb50711" x="262.384869" y="210.728419" style="fill: #1f77b4; stroke: #1f77b4"/>
     <use xlink:href="#me25cb50711" x="218.245107" y="171.848375" style="fill: #1f77b4; stroke: #1f77b4"/>
     <use xlink:href="#me25cb50711" x="217.773805" y="195.163761" style="fill: #1f77b4; stroke: #1f77b4"/>
     <use xlink:href="#me25cb50711" x="277.705464" y="129.585944" style="fill: #1f77b4; stroke: #1f77b4"/>
     <use xlink:href="#me25cb50711" x="276.192669" y="193.371425" style="fill: #1f77b4; stroke: #1f77b4"/>
     <use xlink:href="#me25cb50711" x="277.605172" y="209.625638" style="fill: #1f77b4; stroke: #1f77b4"/>
     <use xlink:href="#me25cb50711" x="73.98427" y="204.491941" style="fill: #1f77b4; stroke: #1f77b4"/>
     <use xlink:href="#me25cb50711" x="250.66958" y="218.084587" style="fill: #1f77b4; stroke: #1f77b4"/>
     <use xlink:href="#me25cb50711" x="79.690583" y="202.922792" style="fill: #1f77b4; stroke: #1f77b4"/>
     <use xlink:href="#me25cb50711" x="369.25248" y="222.539468" style="fill: #1f77b4; stroke: #1f77b4"/>
     <use xlink:href="#me25cb50711" x="387.091292" y="184.126771" style="fill: #1f77b4; stroke: #1f77b4"/>
     <use xlink:href="#me25cb50711" x="277.039261" y="190.008962" style="fill: #1f77b4; stroke: #1f77b4"/>
     <use xlink:href="#me25cb50711" x="277.266685" y="217.005016" style="fill: #1f77b4; stroke: #1f77b4"/>
     <use xlink:href="#me25cb50711" x="217.80915" y="188.757041" style="fill: #1f77b4; stroke: #1f77b4"/>
     <use xlink:href="#me25cb50711" x="280.977525" y="224.538906" style="fill: #1f77b4; stroke: #1f77b4"/>
     <use xlink:href="#me25cb50711" x="218.121892" y="108.062894" style="fill: #1f77b4; stroke: #1f77b4"/>
     <use xlink:href="#me25cb50711" x="73.907869" y="203.595285" style="fill: #1f77b4; stroke: #1f77b4"/>
     <use xlink:href="#me25cb50711" x="217.716546" y="187.802423" style="fill: #1f77b4; stroke: #1f77b4"/>
     <use xlink:href="#me25cb50711" x="218.086614" y="185.328939" style="fill: #1f77b4; stroke: #1f77b4"/>
     <use xlink:href="#me25cb50711" x="217.774391" y="191.577134" style="fill: #1f77b4; stroke: #1f77b4"/>
     <use xlink:href="#me25cb50711" x="217.915873" y="187.122253" style="fill: #1f77b4; stroke: #1f77b4"/>
     <use xlink:href="#me25cb50711" x="292.914095" y="145.189745" style="fill: #1f77b4; stroke: #1f77b4"/>
     <use xlink:href="#me25cb50711" x="220.739191" y="114.339492" style="fill: #1f77b4; stroke: #1f77b4"/>
     <use xlink:href="#me25cb50711" x="74.424016" y="216.46784" style="fill: #1f77b4; stroke: #1f77b4"/>
     <use xlink:href="#me25cb50711" x="276.939314" y="208.989227" style="fill: #1f77b4; stroke: #1f77b4"/>
     <use xlink:href="#me25cb50711" x="277.35016" y="129.137616" style="fill: #1f77b4; stroke: #1f77b4"/>
     <use xlink:href="#me25cb50711" x="218.143711" y="183.75979" style="fill: #1f77b4; stroke: #1f77b4"/>
     <use xlink:href="#me25cb50711" x="268.546482" y="216.686811" style="fill: #1f77b4; stroke: #1f77b4"/>
     <use xlink:href="#me25cb50711" x="74.005306" y="203.146956" style="fill: #1f77b4; stroke: #1f77b4"/>
     <use xlink:href="#me25cb50711" x="80.448404" y="208.500978" style="fill: #1f77b4; stroke: #1f77b4"/>
     <use xlink:href="#me25cb50711" x="77.034845" y="209.397635" style="fill: #1f77b4; stroke: #1f77b4"/>
     <use xlink:href="#me25cb50711" x="80.863205" y="218.196669" style="fill: #1f77b4; stroke: #1f77b4"/>
     <use xlink:href="#me25cb50711" x="384.808006" y="185.920085" style="fill: #1f77b4; stroke: #1f77b4"/>
     <use xlink:href="#me25cb50711" x="217.857568" y="107.390402" style="fill: #1f77b4; stroke: #1f77b4"/>
     <use xlink:href="#me25cb50711" x="277.355977" y="216.050399" style="fill: #1f77b4; stroke: #1f77b4"/>
     <use xlink:href="#me25cb50711" x="285.023954" y="228.964229" style="fill: #1f77b4; stroke: #1f77b4"/>
     <use xlink:href="#me25cb50711" x="218.089705" y="183.647707" style="fill: #1f77b4; stroke: #1f77b4"/>
     <use xlink:href="#me25cb50711" x="217.955288" y="183.983954" style="fill: #1f77b4; stroke: #1f77b4"/>
     <use xlink:href="#me25cb50711" x="217.731415" y="191.895339" style="fill: #1f77b4; stroke: #1f77b4"/>
     <use xlink:href="#me25cb50711" x="216.650862" y="189.667899" style="fill: #1f77b4; stroke: #1f77b4"/>
     <use xlink:href="#me25cb50711" x="217.844676" y="194.527349" style="fill: #1f77b4; stroke: #1f77b4"/>
     <use xlink:href="#me25cb50711" x="287.022392" y="223.642249" style="fill: #1f77b4; stroke: #1f77b4"/>
     <use xlink:href="#me25cb50711" x="217.822588" y="186.193354" style="fill: #1f77b4; stroke: #1f77b4"/>
     <use xlink:href="#me25cb50711" x="277.221492" y="213.418389" style="fill: #1f77b4; stroke: #1f77b4"/>
     <use xlink:href="#me25cb50711" x="75.685611" y="208.645303" style="fill: #1f77b4; stroke: #1f77b4"/>
     <use xlink:href="#me25cb50711" x="218.571537" y="175.435002" style="fill: #1f77b4; stroke: #1f77b4"/>
     <use xlink:href="#me25cb50711" x="79.308968" y="220.96648" style="fill: #1f77b4; stroke: #1f77b4"/>
     <use xlink:href="#me25cb50711" x="75.865059" y="222.687631" style="fill: #1f77b4; stroke: #1f77b4"/>
     <use xlink:href="#me25cb50711" x="94.286985" y="205.507004" style="fill: #1f77b4; stroke: #1f77b4"/>
     <use xlink:href="#me25cb50711" x="217.728459" y="189.205369" style="fill: #1f77b4; stroke: #1f77b4"/>
     <use xlink:href="#me25cb50711" x="217.872879" y="169.158405" style="fill: #1f77b4; stroke: #1f77b4"/>
     <use xlink:href="#me25cb50711" x="276.82132" y="200.191547" style="fill: #1f77b4; stroke: #1f77b4"/>
     <use xlink:href="#me25cb50711" x="286.014169" y="227.691406" style="fill: #1f77b4; stroke: #1f77b4"/>
     <use xlink:href="#me25cb50711" x="127.957977" y="209.961885" style="fill: #1f77b4; stroke: #1f77b4"/>
     <use xlink:href="#me25cb50711" x="277.685767" y="205.170757" style="fill: #1f77b4; stroke: #1f77b4"/>
     <use xlink:href="#me25cb50711" x="276.430575" y="169.643792" style="fill: #1f77b4; stroke: #1f77b4"/>
     <use xlink:href="#me25cb50711" x="217.83093" y="186.977928" style="fill: #1f77b4; stroke: #1f77b4"/>
     <use xlink:href="#me25cb50711" x="76.881274" y="213.329541" style="fill: #1f77b4; stroke: #1f77b4"/>
     <use xlink:href="#me25cb50711" x="277.527034" y="200.079465" style="fill: #1f77b4; stroke: #1f77b4"/>
     <use xlink:href="#me25cb50711" x="217.785209" y="148.120742" style="fill: #1f77b4; stroke: #1f77b4"/>
     <use xlink:href="#me25cb50711" x="277.340964" y="169.867956" style="fill: #1f77b4; stroke: #1f77b4"/>
     <use xlink:href="#me25cb50711" x="254.104808" y="202.81071" style="fill: #1f77b4; stroke: #1f77b4"/>
     <use xlink:href="#me25cb50711" x="287.923162" y="206.285255" style="fill: #1f77b4; stroke: #1f77b4"/>
     <use xlink:href="#me25cb50711" x="277.299821" y="211.30687" style="fill: #1f77b4; stroke: #1f77b4"/>
     <use xlink:href="#me25cb50711" x="217.952715" y="182.03096" style="fill: #1f77b4; stroke: #1f77b4"/>
     <use xlink:href="#me25cb50711" x="277.995533" y="189.89688" style="fill: #1f77b4; stroke: #1f77b4"/>
     <use xlink:href="#me25cb50711" x="80.213793" y="213.105377" style="fill: #1f77b4; stroke: #1f77b4"/>
     <use xlink:href="#me25cb50711" x="265.406314" y="212.23193" style="fill: #1f77b4; stroke: #1f77b4"/>
     <use xlink:href="#me25cb50711" x="96.263425" y="208.05265" style="fill: #1f77b4; stroke: #1f77b4"/>
     <use xlink:href="#me25cb50711" x="218.489896" y="108.959551" style="fill: #1f77b4; stroke: #1f77b4"/>
     <use xlink:href="#me25cb50711" x="312.649613" y="220.630234" style="fill: #1f77b4; stroke: #1f77b4"/>
     <use xlink:href="#me25cb50711" x="217.979036" y="178.892661" style="fill: #1f77b4; stroke: #1f77b4"/>
     <use xlink:href="#me25cb50711" x="73.832727" y="142.499774" style="fill: #1f77b4; stroke: #1f77b4"/>
     <use xlink:href="#me25cb50711" x="277.398156" y="205.955332" style="fill: #1f77b4; stroke: #1f77b4"/>
     <use xlink:href="#me25cb50711" x="218.405375" y="178.556415" style="fill: #1f77b4; stroke: #1f77b4"/>
     <use xlink:href="#me25cb50711" x="219.730305" y="155.069832" style="fill: #1f77b4; stroke: #1f77b4"/>
     <use xlink:href="#me25cb50711" x="96.546174" y="209.773802" style="fill: #1f77b4; stroke: #1f77b4"/>
     <use xlink:href="#me25cb50711" x="218.607918" y="149.689891" style="fill: #1f77b4; stroke: #1f77b4"/>
     <use xlink:href="#me25cb50711" x="330.918277" y="225.14576" style="fill: #1f77b4; stroke: #1f77b4"/>
     <use xlink:href="#me25cb50711" x="372.594903" y="223.19392" style="fill: #1f77b4; stroke: #1f77b4"/>
     <use xlink:href="#me25cb50711" x="225.090442" y="221.903057" style="fill: #1f77b4; stroke: #1f77b4"/>
     <use xlink:href="#me25cb50711" x="381.69558" y="226.332219" style="fill: #1f77b4; stroke: #1f77b4"/>
     <use xlink:href="#me25cb50711" x="371.62427" y="222.969756" style="fill: #1f77b4; stroke: #1f77b4"/>
     <use xlink:href="#me25cb50711" x="217.724014" y="188.102588" style="fill: #1f77b4; stroke: #1f77b4"/>
     <use xlink:href="#me25cb50711" x="78.735096" y="210.670458" style="fill: #1f77b4; stroke: #1f77b4"/>
     <use xlink:href="#me25cb50711" x="381.798752" y="229.918846" style="fill: #1f77b4; stroke: #1f77b4"/>
     <use xlink:href="#me25cb50711" x="75.996849" y="225.377602" style="fill: #1f77b4; stroke: #1f77b4"/>
     <use xlink:href="#me25cb50711" x="96.850106" y="226.014013" style="fill: #1f77b4; stroke: #1f77b4"/>
     <use xlink:href="#me25cb50711" x="217.744441" y="188.250752" style="fill: #1f77b4; stroke: #1f77b4"/>
     <use xlink:href="#me25cb50711" x="217.785516" y="187.874585" style="fill: #1f77b4; stroke: #1f77b4"/>
     <use xlink:href="#me25cb50711" x="75.854267" y="142.051446" style="fill: #1f77b4; stroke: #1f77b4"/>
     <use xlink:href="#me25cb50711" x="277.32453" y="207.140637" style="fill: #1f77b4; stroke: #1f77b4"/>
     <use xlink:href="#me25cb50711" x="73.974396" y="200.415711" style="fill: #1f77b4; stroke: #1f77b4"/>
     <use xlink:href="#me25cb50711" x="218.109816" y="107.614566" style="fill: #1f77b4; stroke: #1f77b4"/>
     <use xlink:href="#me25cb50711" x="86.289147" y="222.239303" style="fill: #1f77b4; stroke: #1f77b4"/>
     <use xlink:href="#me25cb50711" x="218.016176" y="168.485912" style="fill: #1f77b4; stroke: #1f77b4"/>
     <use xlink:href="#me25cb50711" x="104.34591" y="222.65155" style="fill: #1f77b4; stroke: #1f77b4"/>
     <use xlink:href="#me25cb50711" x="73.958669" y="221.414808" style="fill: #1f77b4; stroke: #1f77b4"/>
     <use xlink:href="#me25cb50711" x="218.121815" y="148.793235" style="fill: #1f77b4; stroke: #1f77b4"/>
     <use xlink:href="#me25cb50711" x="278.013445" y="176.592882" style="fill: #1f77b4; stroke: #1f77b4"/>
     <use xlink:href="#me25cb50711" x="277.77863" y="170.316284" style="fill: #1f77b4; stroke: #1f77b4"/>
     <use xlink:href="#me25cb50711" x="80.10172" y="141.827282" style="fill: #1f77b4; stroke: #1f77b4"/>
     <use xlink:href="#me25cb50711" x="278.262065" y="171.212941" style="fill: #1f77b4; stroke: #1f77b4"/>
     <use xlink:href="#me25cb50711" x="291.932749" y="132.275915" style="fill: #1f77b4; stroke: #1f77b4"/>
     <use xlink:href="#me25cb50711" x="371.367856" y="222.857674" style="fill: #1f77b4; stroke: #1f77b4"/>
     <use xlink:href="#me25cb50711" x="217.740227" y="189.78382" style="fill: #1f77b4; stroke: #1f77b4"/>
     <use xlink:href="#me25cb50711" x="217.832706" y="188.438835" style="fill: #1f77b4; stroke: #1f77b4"/>
     <use xlink:href="#me25cb50711" x="277.545484" y="128.80137" style="fill: #1f77b4; stroke: #1f77b4"/>
     <use xlink:href="#me25cb50711" x="276.657193" y="209.73772" style="fill: #1f77b4; stroke: #1f77b4"/>
     <use xlink:href="#me25cb50711" x="74.46648" y="223.584288" style="fill: #1f77b4; stroke: #1f77b4"/>
     <use xlink:href="#me25cb50711" x="74.127819" y="206.851989" style="fill: #1f77b4; stroke: #1f77b4"/>
     <use xlink:href="#me25cb50711" x="217.778096" y="179.34099" style="fill: #1f77b4; stroke: #1f77b4"/>
     <use xlink:href="#me25cb50711" x="367.3125" y="182.44554" style="fill: #1f77b4; stroke: #1f77b4"/>
     <use xlink:href="#me25cb50711" x="218.379477" y="151.483205" style="fill: #1f77b4; stroke: #1f77b4"/>
     <use xlink:href="#me25cb50711" x="100.540791" y="223.324043" style="fill: #1f77b4; stroke: #1f77b4"/>
     <use xlink:href="#me25cb50711" x="277.335281" y="211.625076" style="fill: #1f77b4; stroke: #1f77b4"/>
     <use xlink:href="#me25cb50711" x="302.18631" y="148.776372" style="fill: #1f77b4; stroke: #1f77b4"/>
     <use xlink:href="#me25cb50711" x="371.825777" y="141.7152" style="fill: #1f77b4; stroke: #1f77b4"/>
     <use xlink:href="#me25cb50711" x="277.516917" y="191.578111" style="fill: #1f77b4; stroke: #1f77b4"/>
     <use xlink:href="#me25cb50711" x="217.866025" y="187.466177" style="fill: #1f77b4; stroke: #1f77b4"/>
     <use xlink:href="#me25cb50711" x="217.716738" y="193.254526" style="fill: #1f77b4; stroke: #1f77b4"/>
     <use xlink:href="#me25cb50711" x="279.773613" y="130.482601" style="fill: #1f77b4; stroke: #1f77b4"/>
     <use xlink:href="#me25cb50711" x="131.33777" y="205.28284" style="fill: #1f77b4; stroke: #1f77b4"/>
     <use xlink:href="#me25cb50711" x="217.887546" y="186.305436" style="fill: #1f77b4; stroke: #1f77b4"/>
     <use xlink:href="#me25cb50711" x="217.693796" y="188.420794" style="fill: #1f77b4; stroke: #1f77b4"/>
     <use xlink:href="#me25cb50711" x="100.956811" y="222.875715" style="fill: #1f77b4; stroke: #1f77b4"/>
     <use xlink:href="#me25cb50711" x="277.290625" y="210.055926" style="fill: #1f77b4; stroke: #1f77b4"/>
     <use xlink:href="#me25cb50711" x="398.487273" y="143.396431" style="fill: #1f77b4; stroke: #1f77b4"/>
     <use xlink:href="#me25cb50711" x="217.769111" y="190.102026" style="fill: #1f77b4; stroke: #1f77b4"/>
     <use xlink:href="#me25cb50711" x="289.616385" y="220.054467" style="fill: #1f77b4; stroke: #1f77b4"/>
     <use xlink:href="#me25cb50711" x="217.910028" y="180.237646" style="fill: #1f77b4; stroke: #1f77b4"/>
     <use xlink:href="#me25cb50711" x="217.841979" y="184.432282" style="fill: #1f77b4; stroke: #1f77b4"/>
     <use xlink:href="#me25cb50711" x="279.470489" y="173.006255" style="fill: #1f77b4; stroke: #1f77b4"/>
     <use xlink:href="#me25cb50711" x="217.925242" y="188.214671" style="fill: #1f77b4; stroke: #1f77b4"/>
     <use xlink:href="#me25cb50711" x="75.35426" y="211.190949" style="fill: #1f77b4; stroke: #1f77b4"/>
     <use xlink:href="#me25cb50711" x="116.506825" y="209.325473" style="fill: #1f77b4; stroke: #1f77b4"/>
    </g>
   </g>
   <g id="matplotlib.axis_1">
    <g id="xtick_1">
     <g id="line2d_1">
      <defs>
       <path id="m72672fa66f" d="M 0 0 
L 0 3.5 
" style="stroke: #000000; stroke-width: 0.8"/>
      </defs>
      <g>
       <use xlink:href="#m72672fa66f" x="73.776902" y="307.584" style="stroke: #000000; stroke-width: 0.8"/>
      </g>
     </g>
     <g id="text_1">
      <!-- 0.00 -->
      <g transform="translate(62.64409 322.182437) scale(0.1 -0.1)">
       <defs>
        <path id="DejaVuSans-30" d="M 2034 4250 
Q 1547 4250 1301 3770 
Q 1056 3291 1056 2328 
Q 1056 1369 1301 889 
Q 1547 409 2034 409 
Q 2525 409 2770 889 
Q 3016 1369 3016 2328 
Q 3016 3291 2770 3770 
Q 2525 4250 2034 4250 
z
M 2034 4750 
Q 2819 4750 3233 4129 
Q 3647 3509 3647 2328 
Q 3647 1150 3233 529 
Q 2819 -91 2034 -91 
Q 1250 -91 836 529 
Q 422 1150 422 2328 
Q 422 3509 836 4129 
Q 1250 4750 2034 4750 
z
" transform="scale(0.015625)"/>
        <path id="DejaVuSans-2e" d="M 684 794 
L 1344 794 
L 1344 0 
L 684 0 
L 684 794 
z
" transform="scale(0.015625)"/>
       </defs>
       <use xlink:href="#DejaVuSans-30"/>
       <use xlink:href="#DejaVuSans-2e" x="63.623047"/>
       <use xlink:href="#DejaVuSans-30" x="95.410156"/>
       <use xlink:href="#DejaVuSans-30" x="159.033203"/>
      </g>
     </g>
    </g>
    <g id="xtick_2">
     <g id="line2d_2">
      <g>
       <use xlink:href="#m72672fa66f" x="125.312227" y="307.584" style="stroke: #000000; stroke-width: 0.8"/>
      </g>
     </g>
     <g id="text_2">
      <!-- 0.02 -->
      <g transform="translate(114.179414 322.182437) scale(0.1 -0.1)">
       <defs>
        <path id="DejaVuSans-32" d="M 1228 531 
L 3431 531 
L 3431 0 
L 469 0 
L 469 531 
Q 828 903 1448 1529 
Q 2069 2156 2228 2338 
Q 2531 2678 2651 2914 
Q 2772 3150 2772 3378 
Q 2772 3750 2511 3984 
Q 2250 4219 1831 4219 
Q 1534 4219 1204 4116 
Q 875 4013 500 3803 
L 500 4441 
Q 881 4594 1212 4672 
Q 1544 4750 1819 4750 
Q 2544 4750 2975 4387 
Q 3406 4025 3406 3419 
Q 3406 3131 3298 2873 
Q 3191 2616 2906 2266 
Q 2828 2175 2409 1742 
Q 1991 1309 1228 531 
z
" transform="scale(0.015625)"/>
       </defs>
       <use xlink:href="#DejaVuSans-30"/>
       <use xlink:href="#DejaVuSans-2e" x="63.623047"/>
       <use xlink:href="#DejaVuSans-30" x="95.410156"/>
       <use xlink:href="#DejaVuSans-32" x="159.033203"/>
      </g>
     </g>
    </g>
    <g id="xtick_3">
     <g id="line2d_3">
      <g>
       <use xlink:href="#m72672fa66f" x="176.847551" y="307.584" style="stroke: #000000; stroke-width: 0.8"/>
      </g>
     </g>
     <g id="text_3">
      <!-- 0.04 -->
      <g transform="translate(165.714739 322.182437) scale(0.1 -0.1)">
       <defs>
        <path id="DejaVuSans-34" d="M 2419 4116 
L 825 1625 
L 2419 1625 
L 2419 4116 
z
M 2253 4666 
L 3047 4666 
L 3047 1625 
L 3713 1625 
L 3713 1100 
L 3047 1100 
L 3047 0 
L 2419 0 
L 2419 1100 
L 313 1100 
L 313 1709 
L 2253 4666 
z
" transform="scale(0.015625)"/>
       </defs>
       <use xlink:href="#DejaVuSans-30"/>
       <use xlink:href="#DejaVuSans-2e" x="63.623047"/>
       <use xlink:href="#DejaVuSans-30" x="95.410156"/>
       <use xlink:href="#DejaVuSans-34" x="159.033203"/>
      </g>
     </g>
    </g>
    <g id="xtick_4">
     <g id="line2d_4">
      <g>
       <use xlink:href="#m72672fa66f" x="228.382876" y="307.584" style="stroke: #000000; stroke-width: 0.8"/>
      </g>
     </g>
     <g id="text_4">
      <!-- 0.06 -->
      <g transform="translate(217.250063 322.182437) scale(0.1 -0.1)">
       <defs>
        <path id="DejaVuSans-36" d="M 2113 2584 
Q 1688 2584 1439 2293 
Q 1191 2003 1191 1497 
Q 1191 994 1439 701 
Q 1688 409 2113 409 
Q 2538 409 2786 701 
Q 3034 994 3034 1497 
Q 3034 2003 2786 2293 
Q 2538 2584 2113 2584 
z
M 3366 4563 
L 3366 3988 
Q 3128 4100 2886 4159 
Q 2644 4219 2406 4219 
Q 1781 4219 1451 3797 
Q 1122 3375 1075 2522 
Q 1259 2794 1537 2939 
Q 1816 3084 2150 3084 
Q 2853 3084 3261 2657 
Q 3669 2231 3669 1497 
Q 3669 778 3244 343 
Q 2819 -91 2113 -91 
Q 1303 -91 875 529 
Q 447 1150 447 2328 
Q 447 3434 972 4092 
Q 1497 4750 2381 4750 
Q 2619 4750 2861 4703 
Q 3103 4656 3366 4563 
z
" transform="scale(0.015625)"/>
       </defs>
       <use xlink:href="#DejaVuSans-30"/>
       <use xlink:href="#DejaVuSans-2e" x="63.623047"/>
       <use xlink:href="#DejaVuSans-30" x="95.410156"/>
       <use xlink:href="#DejaVuSans-36" x="159.033203"/>
      </g>
     </g>
    </g>
    <g id="xtick_5">
     <g id="line2d_5">
      <g>
       <use xlink:href="#m72672fa66f" x="279.9182" y="307.584" style="stroke: #000000; stroke-width: 0.8"/>
      </g>
     </g>
     <g id="text_5">
      <!-- 0.08 -->
      <g transform="translate(268.785388 322.182437) scale(0.1 -0.1)">
       <defs>
        <path id="DejaVuSans-38" d="M 2034 2216 
Q 1584 2216 1326 1975 
Q 1069 1734 1069 1313 
Q 1069 891 1326 650 
Q 1584 409 2034 409 
Q 2484 409 2743 651 
Q 3003 894 3003 1313 
Q 3003 1734 2745 1975 
Q 2488 2216 2034 2216 
z
M 1403 2484 
Q 997 2584 770 2862 
Q 544 3141 544 3541 
Q 544 4100 942 4425 
Q 1341 4750 2034 4750 
Q 2731 4750 3128 4425 
Q 3525 4100 3525 3541 
Q 3525 3141 3298 2862 
Q 3072 2584 2669 2484 
Q 3125 2378 3379 2068 
Q 3634 1759 3634 1313 
Q 3634 634 3220 271 
Q 2806 -91 2034 -91 
Q 1263 -91 848 271 
Q 434 634 434 1313 
Q 434 1759 690 2068 
Q 947 2378 1403 2484 
z
M 1172 3481 
Q 1172 3119 1398 2916 
Q 1625 2713 2034 2713 
Q 2441 2713 2670 2916 
Q 2900 3119 2900 3481 
Q 2900 3844 2670 4047 
Q 2441 4250 2034 4250 
Q 1625 4250 1398 4047 
Q 1172 3844 1172 3481 
z
" transform="scale(0.015625)"/>
       </defs>
       <use xlink:href="#DejaVuSans-30"/>
       <use xlink:href="#DejaVuSans-2e" x="63.623047"/>
       <use xlink:href="#DejaVuSans-30" x="95.410156"/>
       <use xlink:href="#DejaVuSans-38" x="159.033203"/>
      </g>
     </g>
    </g>
    <g id="xtick_6">
     <g id="line2d_6">
      <g>
       <use xlink:href="#m72672fa66f" x="331.453525" y="307.584" style="stroke: #000000; stroke-width: 0.8"/>
      </g>
     </g>
     <g id="text_6">
      <!-- 0.10 -->
      <g transform="translate(320.320712 322.182437) scale(0.1 -0.1)">
       <defs>
        <path id="DejaVuSans-31" d="M 794 531 
L 1825 531 
L 1825 4091 
L 703 3866 
L 703 4441 
L 1819 4666 
L 2450 4666 
L 2450 531 
L 3481 531 
L 3481 0 
L 794 0 
L 794 531 
z
" transform="scale(0.015625)"/>
       </defs>
       <use xlink:href="#DejaVuSans-30"/>
       <use xlink:href="#DejaVuSans-2e" x="63.623047"/>
       <use xlink:href="#DejaVuSans-31" x="95.410156"/>
       <use xlink:href="#DejaVuSans-30" x="159.033203"/>
      </g>
     </g>
    </g>
    <g id="xtick_7">
     <g id="line2d_7">
      <g>
       <use xlink:href="#m72672fa66f" x="382.988849" y="307.584" style="stroke: #000000; stroke-width: 0.8"/>
      </g>
     </g>
     <g id="text_7">
      <!-- 0.12 -->
      <g transform="translate(371.856037 322.182437) scale(0.1 -0.1)">
       <use xlink:href="#DejaVuSans-30"/>
       <use xlink:href="#DejaVuSans-2e" x="63.623047"/>
       <use xlink:href="#DejaVuSans-31" x="95.410156"/>
       <use xlink:href="#DejaVuSans-32" x="159.033203"/>
      </g>
     </g>
    </g>
    <g id="text_8">
     <!-- Y Test -->
     <g transform="translate(221.671719 335.860562) scale(0.1 -0.1)">
      <defs>
       <path id="DejaVuSans-59" d="M -13 4666 
L 666 4666 
L 1959 2747 
L 3244 4666 
L 3922 4666 
L 2272 2222 
L 2272 0 
L 1638 0 
L 1638 2222 
L -13 4666 
z
" transform="scale(0.015625)"/>
       <path id="DejaVuSans-20" transform="scale(0.015625)"/>
       <path id="DejaVuSans-54" d="M -19 4666 
L 3928 4666 
L 3928 4134 
L 2272 4134 
L 2272 0 
L 1638 0 
L 1638 4134 
L -19 4134 
L -19 4666 
z
" transform="scale(0.015625)"/>
       <path id="DejaVuSans-65" d="M 3597 1894 
L 3597 1613 
L 953 1613 
Q 991 1019 1311 708 
Q 1631 397 2203 397 
Q 2534 397 2845 478 
Q 3156 559 3463 722 
L 3463 178 
Q 3153 47 2828 -22 
Q 2503 -91 2169 -91 
Q 1331 -91 842 396 
Q 353 884 353 1716 
Q 353 2575 817 3079 
Q 1281 3584 2069 3584 
Q 2775 3584 3186 3129 
Q 3597 2675 3597 1894 
z
M 3022 2063 
Q 3016 2534 2758 2815 
Q 2500 3097 2075 3097 
Q 1594 3097 1305 2825 
Q 1016 2553 972 2059 
L 3022 2063 
z
" transform="scale(0.015625)"/>
       <path id="DejaVuSans-73" d="M 2834 3397 
L 2834 2853 
Q 2591 2978 2328 3040 
Q 2066 3103 1784 3103 
Q 1356 3103 1142 2972 
Q 928 2841 928 2578 
Q 928 2378 1081 2264 
Q 1234 2150 1697 2047 
L 1894 2003 
Q 2506 1872 2764 1633 
Q 3022 1394 3022 966 
Q 3022 478 2636 193 
Q 2250 -91 1575 -91 
Q 1294 -91 989 -36 
Q 684 19 347 128 
L 347 722 
Q 666 556 975 473 
Q 1284 391 1588 391 
Q 1994 391 2212 530 
Q 2431 669 2431 922 
Q 2431 1156 2273 1281 
Q 2116 1406 1581 1522 
L 1381 1569 
Q 847 1681 609 1914 
Q 372 2147 372 2553 
Q 372 3047 722 3315 
Q 1072 3584 1716 3584 
Q 2034 3584 2315 3537 
Q 2597 3491 2834 3397 
z
" transform="scale(0.015625)"/>
       <path id="DejaVuSans-74" d="M 1172 4494 
L 1172 3500 
L 2356 3500 
L 2356 3053 
L 1172 3053 
L 1172 1153 
Q 1172 725 1289 603 
Q 1406 481 1766 481 
L 2356 481 
L 2356 0 
L 1766 0 
Q 1100 0 847 248 
Q 594 497 594 1153 
L 594 3053 
L 172 3053 
L 172 3500 
L 594 3500 
L 594 4494 
L 1172 4494 
z
" transform="scale(0.015625)"/>
      </defs>
      <use xlink:href="#DejaVuSans-59"/>
      <use xlink:href="#DejaVuSans-20" x="61.083984"/>
      <use xlink:href="#DejaVuSans-54" x="92.871094"/>
      <use xlink:href="#DejaVuSans-65" x="136.955078"/>
      <use xlink:href="#DejaVuSans-73" x="198.478516"/>
      <use xlink:href="#DejaVuSans-74" x="250.578125"/>
     </g>
    </g>
   </g>
   <g id="matplotlib.axis_2">
    <g id="ytick_1">
     <g id="line2d_8">
      <defs>
       <path id="meca41909b9" d="M 0 0 
L -3.5 0 
" style="stroke: #000000; stroke-width: 0.8"/>
      </defs>
      <g>
       <use xlink:href="#meca41909b9" x="57.6" y="295.529599" style="stroke: #000000; stroke-width: 0.8"/>
      </g>
     </g>
     <g id="text_9">
      <!-- 0.00 -->
      <g transform="translate(28.334375 299.328817) scale(0.1 -0.1)">
       <use xlink:href="#DejaVuSans-30"/>
       <use xlink:href="#DejaVuSans-2e" x="63.623047"/>
       <use xlink:href="#DejaVuSans-30" x="95.410156"/>
       <use xlink:href="#DejaVuSans-30" x="159.033203"/>
      </g>
     </g>
    </g>
    <g id="ytick_2">
     <g id="line2d_9">
      <g>
       <use xlink:href="#meca41909b9" x="57.6" y="257.12747" style="stroke: #000000; stroke-width: 0.8"/>
      </g>
     </g>
     <g id="text_10">
      <!-- 0.02 -->
      <g transform="translate(28.334375 260.926688) scale(0.1 -0.1)">
       <use xlink:href="#DejaVuSans-30"/>
       <use xlink:href="#DejaVuSans-2e" x="63.623047"/>
       <use xlink:href="#DejaVuSans-30" x="95.410156"/>
       <use xlink:href="#DejaVuSans-32" x="159.033203"/>
      </g>
     </g>
    </g>
    <g id="ytick_3">
     <g id="line2d_10">
      <g>
       <use xlink:href="#meca41909b9" x="57.6" y="218.725341" style="stroke: #000000; stroke-width: 0.8"/>
      </g>
     </g>
     <g id="text_11">
      <!-- 0.04 -->
      <g transform="translate(28.334375 222.52456) scale(0.1 -0.1)">
       <use xlink:href="#DejaVuSans-30"/>
       <use xlink:href="#DejaVuSans-2e" x="63.623047"/>
       <use xlink:href="#DejaVuSans-30" x="95.410156"/>
       <use xlink:href="#DejaVuSans-34" x="159.033203"/>
      </g>
     </g>
    </g>
    <g id="ytick_4">
     <g id="line2d_11">
      <g>
       <use xlink:href="#meca41909b9" x="57.6" y="180.323212" style="stroke: #000000; stroke-width: 0.8"/>
      </g>
     </g>
     <g id="text_12">
      <!-- 0.06 -->
      <g transform="translate(28.334375 184.122431) scale(0.1 -0.1)">
       <use xlink:href="#DejaVuSans-30"/>
       <use xlink:href="#DejaVuSans-2e" x="63.623047"/>
       <use xlink:href="#DejaVuSans-30" x="95.410156"/>
       <use xlink:href="#DejaVuSans-36" x="159.033203"/>
      </g>
     </g>
    </g>
    <g id="ytick_5">
     <g id="line2d_12">
      <g>
       <use xlink:href="#meca41909b9" x="57.6" y="141.921083" style="stroke: #000000; stroke-width: 0.8"/>
      </g>
     </g>
     <g id="text_13">
      <!-- 0.08 -->
      <g transform="translate(28.334375 145.720302) scale(0.1 -0.1)">
       <use xlink:href="#DejaVuSans-30"/>
       <use xlink:href="#DejaVuSans-2e" x="63.623047"/>
       <use xlink:href="#DejaVuSans-30" x="95.410156"/>
       <use xlink:href="#DejaVuSans-38" x="159.033203"/>
      </g>
     </g>
    </g>
    <g id="ytick_6">
     <g id="line2d_13">
      <g>
       <use xlink:href="#meca41909b9" x="57.6" y="103.518954" style="stroke: #000000; stroke-width: 0.8"/>
      </g>
     </g>
     <g id="text_14">
      <!-- 0.10 -->
      <g transform="translate(28.334375 107.318173) scale(0.1 -0.1)">
       <use xlink:href="#DejaVuSans-30"/>
       <use xlink:href="#DejaVuSans-2e" x="63.623047"/>
       <use xlink:href="#DejaVuSans-31" x="95.410156"/>
       <use xlink:href="#DejaVuSans-30" x="159.033203"/>
      </g>
     </g>
    </g>
    <g id="ytick_7">
     <g id="line2d_14">
      <g>
       <use xlink:href="#meca41909b9" x="57.6" y="65.116825" style="stroke: #000000; stroke-width: 0.8"/>
      </g>
     </g>
     <g id="text_15">
      <!-- 0.12 -->
      <g transform="translate(28.334375 68.916044) scale(0.1 -0.1)">
       <use xlink:href="#DejaVuSans-30"/>
       <use xlink:href="#DejaVuSans-2e" x="63.623047"/>
       <use xlink:href="#DejaVuSans-31" x="95.410156"/>
       <use xlink:href="#DejaVuSans-32" x="159.033203"/>
      </g>
     </g>
    </g>
    <g id="text_16">
     <!-- Predicted Y -->
     <g transform="translate(22.254687 202.641281) rotate(-90) scale(0.1 -0.1)">
      <defs>
       <path id="DejaVuSans-50" d="M 1259 4147 
L 1259 2394 
L 2053 2394 
Q 2494 2394 2734 2622 
Q 2975 2850 2975 3272 
Q 2975 3691 2734 3919 
Q 2494 4147 2053 4147 
L 1259 4147 
z
M 628 4666 
L 2053 4666 
Q 2838 4666 3239 4311 
Q 3641 3956 3641 3272 
Q 3641 2581 3239 2228 
Q 2838 1875 2053 1875 
L 1259 1875 
L 1259 0 
L 628 0 
L 628 4666 
z
" transform="scale(0.015625)"/>
       <path id="DejaVuSans-72" d="M 2631 2963 
Q 2534 3019 2420 3045 
Q 2306 3072 2169 3072 
Q 1681 3072 1420 2755 
Q 1159 2438 1159 1844 
L 1159 0 
L 581 0 
L 581 3500 
L 1159 3500 
L 1159 2956 
Q 1341 3275 1631 3429 
Q 1922 3584 2338 3584 
Q 2397 3584 2469 3576 
Q 2541 3569 2628 3553 
L 2631 2963 
z
" transform="scale(0.015625)"/>
       <path id="DejaVuSans-64" d="M 2906 2969 
L 2906 4863 
L 3481 4863 
L 3481 0 
L 2906 0 
L 2906 525 
Q 2725 213 2448 61 
Q 2172 -91 1784 -91 
Q 1150 -91 751 415 
Q 353 922 353 1747 
Q 353 2572 751 3078 
Q 1150 3584 1784 3584 
Q 2172 3584 2448 3432 
Q 2725 3281 2906 2969 
z
M 947 1747 
Q 947 1113 1208 752 
Q 1469 391 1925 391 
Q 2381 391 2643 752 
Q 2906 1113 2906 1747 
Q 2906 2381 2643 2742 
Q 2381 3103 1925 3103 
Q 1469 3103 1208 2742 
Q 947 2381 947 1747 
z
" transform="scale(0.015625)"/>
       <path id="DejaVuSans-69" d="M 603 3500 
L 1178 3500 
L 1178 0 
L 603 0 
L 603 3500 
z
M 603 4863 
L 1178 4863 
L 1178 4134 
L 603 4134 
L 603 4863 
z
" transform="scale(0.015625)"/>
       <path id="DejaVuSans-63" d="M 3122 3366 
L 3122 2828 
Q 2878 2963 2633 3030 
Q 2388 3097 2138 3097 
Q 1578 3097 1268 2742 
Q 959 2388 959 1747 
Q 959 1106 1268 751 
Q 1578 397 2138 397 
Q 2388 397 2633 464 
Q 2878 531 3122 666 
L 3122 134 
Q 2881 22 2623 -34 
Q 2366 -91 2075 -91 
Q 1284 -91 818 406 
Q 353 903 353 1747 
Q 353 2603 823 3093 
Q 1294 3584 2113 3584 
Q 2378 3584 2631 3529 
Q 2884 3475 3122 3366 
z
" transform="scale(0.015625)"/>
      </defs>
      <use xlink:href="#DejaVuSans-50"/>
      <use xlink:href="#DejaVuSans-72" x="58.552734"/>
      <use xlink:href="#DejaVuSans-65" x="97.416016"/>
      <use xlink:href="#DejaVuSans-64" x="158.939453"/>
      <use xlink:href="#DejaVuSans-69" x="222.416016"/>
      <use xlink:href="#DejaVuSans-63" x="250.199219"/>
      <use xlink:href="#DejaVuSans-74" x="305.179688"/>
      <use xlink:href="#DejaVuSans-65" x="344.388672"/>
      <use xlink:href="#DejaVuSans-64" x="405.912109"/>
      <use xlink:href="#DejaVuSans-20" x="469.388672"/>
      <use xlink:href="#DejaVuSans-59" x="501.175781"/>
     </g>
    </g>
   </g>
   <g id="line2d_15">
    <path d="M 75.434171 294.294666 
L 398.487273 53.568 
L 73.832727 295.488 
L 116.506825 263.688914 
" clip-path="url(#p52db8ad1dd)" style="fill: none; stroke: #008000; stroke-width: 1.5; stroke-linecap: square"/>
   </g>
   <g id="patch_3">
    <path d="M 57.6 307.584 
L 57.6 41.472 
" style="fill: none; stroke: #000000; stroke-width: 0.8; stroke-linejoin: miter; stroke-linecap: square"/>
   </g>
   <g id="patch_4">
    <path d="M 414.72 307.584 
L 414.72 41.472 
" style="fill: none; stroke: #000000; stroke-width: 0.8; stroke-linejoin: miter; stroke-linecap: square"/>
   </g>
   <g id="patch_5">
    <path d="M 57.6 307.584 
L 414.72 307.584 
" style="fill: none; stroke: #000000; stroke-width: 0.8; stroke-linejoin: miter; stroke-linecap: square"/>
   </g>
   <g id="patch_6">
    <path d="M 57.6 41.472 
L 414.72 41.472 
" style="fill: none; stroke: #000000; stroke-width: 0.8; stroke-linejoin: miter; stroke-linecap: square"/>
   </g>
   <g id="text_17">
    <!-- Regression for Jmin, n, l, a  (actfn=tanh) -->
    <g transform="translate(115.209375 35.472) scale(0.12 -0.12)">
     <defs>
      <path id="DejaVuSans-52" d="M 2841 2188 
Q 3044 2119 3236 1894 
Q 3428 1669 3622 1275 
L 4263 0 
L 3584 0 
L 2988 1197 
Q 2756 1666 2539 1819 
Q 2322 1972 1947 1972 
L 1259 1972 
L 1259 0 
L 628 0 
L 628 4666 
L 2053 4666 
Q 2853 4666 3247 4331 
Q 3641 3997 3641 3322 
Q 3641 2881 3436 2590 
Q 3231 2300 2841 2188 
z
M 1259 4147 
L 1259 2491 
L 2053 2491 
Q 2509 2491 2742 2702 
Q 2975 2913 2975 3322 
Q 2975 3731 2742 3939 
Q 2509 4147 2053 4147 
L 1259 4147 
z
" transform="scale(0.015625)"/>
      <path id="DejaVuSans-67" d="M 2906 1791 
Q 2906 2416 2648 2759 
Q 2391 3103 1925 3103 
Q 1463 3103 1205 2759 
Q 947 2416 947 1791 
Q 947 1169 1205 825 
Q 1463 481 1925 481 
Q 2391 481 2648 825 
Q 2906 1169 2906 1791 
z
M 3481 434 
Q 3481 -459 3084 -895 
Q 2688 -1331 1869 -1331 
Q 1566 -1331 1297 -1286 
Q 1028 -1241 775 -1147 
L 775 -588 
Q 1028 -725 1275 -790 
Q 1522 -856 1778 -856 
Q 2344 -856 2625 -561 
Q 2906 -266 2906 331 
L 2906 616 
Q 2728 306 2450 153 
Q 2172 0 1784 0 
Q 1141 0 747 490 
Q 353 981 353 1791 
Q 353 2603 747 3093 
Q 1141 3584 1784 3584 
Q 2172 3584 2450 3431 
Q 2728 3278 2906 2969 
L 2906 3500 
L 3481 3500 
L 3481 434 
z
" transform="scale(0.015625)"/>
      <path id="DejaVuSans-6f" d="M 1959 3097 
Q 1497 3097 1228 2736 
Q 959 2375 959 1747 
Q 959 1119 1226 758 
Q 1494 397 1959 397 
Q 2419 397 2687 759 
Q 2956 1122 2956 1747 
Q 2956 2369 2687 2733 
Q 2419 3097 1959 3097 
z
M 1959 3584 
Q 2709 3584 3137 3096 
Q 3566 2609 3566 1747 
Q 3566 888 3137 398 
Q 2709 -91 1959 -91 
Q 1206 -91 779 398 
Q 353 888 353 1747 
Q 353 2609 779 3096 
Q 1206 3584 1959 3584 
z
" transform="scale(0.015625)"/>
      <path id="DejaVuSans-6e" d="M 3513 2113 
L 3513 0 
L 2938 0 
L 2938 2094 
Q 2938 2591 2744 2837 
Q 2550 3084 2163 3084 
Q 1697 3084 1428 2787 
Q 1159 2491 1159 1978 
L 1159 0 
L 581 0 
L 581 3500 
L 1159 3500 
L 1159 2956 
Q 1366 3272 1645 3428 
Q 1925 3584 2291 3584 
Q 2894 3584 3203 3211 
Q 3513 2838 3513 2113 
z
" transform="scale(0.015625)"/>
      <path id="DejaVuSans-66" d="M 2375 4863 
L 2375 4384 
L 1825 4384 
Q 1516 4384 1395 4259 
Q 1275 4134 1275 3809 
L 1275 3500 
L 2222 3500 
L 2222 3053 
L 1275 3053 
L 1275 0 
L 697 0 
L 697 3053 
L 147 3053 
L 147 3500 
L 697 3500 
L 697 3744 
Q 697 4328 969 4595 
Q 1241 4863 1831 4863 
L 2375 4863 
z
" transform="scale(0.015625)"/>
      <path id="DejaVuSans-4a" d="M 628 4666 
L 1259 4666 
L 1259 325 
Q 1259 -519 939 -900 
Q 619 -1281 -91 -1281 
L -331 -1281 
L -331 -750 
L -134 -750 
Q 284 -750 456 -515 
Q 628 -281 628 325 
L 628 4666 
z
" transform="scale(0.015625)"/>
      <path id="DejaVuSans-6d" d="M 3328 2828 
Q 3544 3216 3844 3400 
Q 4144 3584 4550 3584 
Q 5097 3584 5394 3201 
Q 5691 2819 5691 2113 
L 5691 0 
L 5113 0 
L 5113 2094 
Q 5113 2597 4934 2840 
Q 4756 3084 4391 3084 
Q 3944 3084 3684 2787 
Q 3425 2491 3425 1978 
L 3425 0 
L 2847 0 
L 2847 2094 
Q 2847 2600 2669 2842 
Q 2491 3084 2119 3084 
Q 1678 3084 1418 2786 
Q 1159 2488 1159 1978 
L 1159 0 
L 581 0 
L 581 3500 
L 1159 3500 
L 1159 2956 
Q 1356 3278 1631 3431 
Q 1906 3584 2284 3584 
Q 2666 3584 2933 3390 
Q 3200 3197 3328 2828 
z
" transform="scale(0.015625)"/>
      <path id="DejaVuSans-2c" d="M 750 794 
L 1409 794 
L 1409 256 
L 897 -744 
L 494 -744 
L 750 256 
L 750 794 
z
" transform="scale(0.015625)"/>
      <path id="DejaVuSans-6c" d="M 603 4863 
L 1178 4863 
L 1178 0 
L 603 0 
L 603 4863 
z
" transform="scale(0.015625)"/>
      <path id="DejaVuSans-61" d="M 2194 1759 
Q 1497 1759 1228 1600 
Q 959 1441 959 1056 
Q 959 750 1161 570 
Q 1363 391 1709 391 
Q 2188 391 2477 730 
Q 2766 1069 2766 1631 
L 2766 1759 
L 2194 1759 
z
M 3341 1997 
L 3341 0 
L 2766 0 
L 2766 531 
Q 2569 213 2275 61 
Q 1981 -91 1556 -91 
Q 1019 -91 701 211 
Q 384 513 384 1019 
Q 384 1609 779 1909 
Q 1175 2209 1959 2209 
L 2766 2209 
L 2766 2266 
Q 2766 2663 2505 2880 
Q 2244 3097 1772 3097 
Q 1472 3097 1187 3025 
Q 903 2953 641 2809 
L 641 3341 
Q 956 3463 1253 3523 
Q 1550 3584 1831 3584 
Q 2591 3584 2966 3190 
Q 3341 2797 3341 1997 
z
" transform="scale(0.015625)"/>
      <path id="DejaVuSans-28" d="M 1984 4856 
Q 1566 4138 1362 3434 
Q 1159 2731 1159 2009 
Q 1159 1288 1364 580 
Q 1569 -128 1984 -844 
L 1484 -844 
Q 1016 -109 783 600 
Q 550 1309 550 2009 
Q 550 2706 781 3412 
Q 1013 4119 1484 4856 
L 1984 4856 
z
" transform="scale(0.015625)"/>
      <path id="DejaVuSans-3d" d="M 678 2906 
L 4684 2906 
L 4684 2381 
L 678 2381 
L 678 2906 
z
M 678 1631 
L 4684 1631 
L 4684 1100 
L 678 1100 
L 678 1631 
z
" transform="scale(0.015625)"/>
      <path id="DejaVuSans-68" d="M 3513 2113 
L 3513 0 
L 2938 0 
L 2938 2094 
Q 2938 2591 2744 2837 
Q 2550 3084 2163 3084 
Q 1697 3084 1428 2787 
Q 1159 2491 1159 1978 
L 1159 0 
L 581 0 
L 581 4863 
L 1159 4863 
L 1159 2956 
Q 1366 3272 1645 3428 
Q 1925 3584 2291 3584 
Q 2894 3584 3203 3211 
Q 3513 2838 3513 2113 
z
" transform="scale(0.015625)"/>
      <path id="DejaVuSans-29" d="M 513 4856 
L 1013 4856 
Q 1481 4119 1714 3412 
Q 1947 2706 1947 2009 
Q 1947 1309 1714 600 
Q 1481 -109 1013 -844 
L 513 -844 
Q 928 -128 1133 580 
Q 1338 1288 1338 2009 
Q 1338 2731 1133 3434 
Q 928 4138 513 4856 
z
" transform="scale(0.015625)"/>
     </defs>
     <use xlink:href="#DejaVuSans-52"/>
     <use xlink:href="#DejaVuSans-65" x="64.982422"/>
     <use xlink:href="#DejaVuSans-67" x="126.505859"/>
     <use xlink:href="#DejaVuSans-72" x="189.982422"/>
     <use xlink:href="#DejaVuSans-65" x="228.845703"/>
     <use xlink:href="#DejaVuSans-73" x="290.369141"/>
     <use xlink:href="#DejaVuSans-73" x="342.46875"/>
     <use xlink:href="#DejaVuSans-69" x="394.568359"/>
     <use xlink:href="#DejaVuSans-6f" x="422.351562"/>
     <use xlink:href="#DejaVuSans-6e" x="483.533203"/>
     <use xlink:href="#DejaVuSans-20" x="546.912109"/>
     <use xlink:href="#DejaVuSans-66" x="578.699219"/>
     <use xlink:href="#DejaVuSans-6f" x="613.904297"/>
     <use xlink:href="#DejaVuSans-72" x="675.085938"/>
     <use xlink:href="#DejaVuSans-20" x="716.199219"/>
     <use xlink:href="#DejaVuSans-4a" x="747.986328"/>
     <use xlink:href="#DejaVuSans-6d" x="777.478516"/>
     <use xlink:href="#DejaVuSans-69" x="874.890625"/>
     <use xlink:href="#DejaVuSans-6e" x="902.673828"/>
     <use xlink:href="#DejaVuSans-2c" x="966.052734"/>
     <use xlink:href="#DejaVuSans-20" x="997.839844"/>
     <use xlink:href="#DejaVuSans-6e" x="1029.626953"/>
     <use xlink:href="#DejaVuSans-2c" x="1093.005859"/>
     <use xlink:href="#DejaVuSans-20" x="1124.792969"/>
     <use xlink:href="#DejaVuSans-6c" x="1156.580078"/>
     <use xlink:href="#DejaVuSans-2c" x="1184.363281"/>
     <use xlink:href="#DejaVuSans-20" x="1216.150391"/>
     <use xlink:href="#DejaVuSans-61" x="1247.9375"/>
     <use xlink:href="#DejaVuSans-20" x="1309.216797"/>
     <use xlink:href="#DejaVuSans-20" x="1341.003906"/>
     <use xlink:href="#DejaVuSans-28" x="1372.791016"/>
     <use xlink:href="#DejaVuSans-61" x="1411.804688"/>
     <use xlink:href="#DejaVuSans-63" x="1473.083984"/>
     <use xlink:href="#DejaVuSans-74" x="1528.064453"/>
     <use xlink:href="#DejaVuSans-66" x="1567.273438"/>
     <use xlink:href="#DejaVuSans-6e" x="1602.478516"/>
     <use xlink:href="#DejaVuSans-3d" x="1665.857422"/>
     <use xlink:href="#DejaVuSans-74" x="1749.646484"/>
     <use xlink:href="#DejaVuSans-61" x="1788.855469"/>
     <use xlink:href="#DejaVuSans-6e" x="1850.134766"/>
     <use xlink:href="#DejaVuSans-68" x="1913.513672"/>
     <use xlink:href="#DejaVuSans-29" x="1976.892578"/>
    </g>
   </g>
   <g id="legend_1">
    <g id="patch_7">
     <path d="M 64.6 78.82825 
L 132.679688 78.82825 
Q 134.679688 78.82825 134.679688 76.82825 
L 134.679688 48.472 
Q 134.679688 46.472 132.679688 46.472 
L 64.6 46.472 
Q 62.6 46.472 62.6 48.472 
L 62.6 76.82825 
Q 62.6 78.82825 64.6 78.82825 
z
" style="fill: #ffffff; opacity: 0.8; stroke: #cccccc; stroke-linejoin: miter"/>
    </g>
    <g id="PathCollection_2">
     <g>
      <use xlink:href="#me25cb50711" x="76.6" y="55.445437" style="fill: #1f77b4; stroke: #1f77b4"/>
     </g>
    </g>
    <g id="text_18">
     <!-- Scatter -->
     <g transform="translate(94.6 58.070437) scale(0.1 -0.1)">
      <defs>
       <path id="DejaVuSans-53" d="M 3425 4513 
L 3425 3897 
Q 3066 4069 2747 4153 
Q 2428 4238 2131 4238 
Q 1616 4238 1336 4038 
Q 1056 3838 1056 3469 
Q 1056 3159 1242 3001 
Q 1428 2844 1947 2747 
L 2328 2669 
Q 3034 2534 3370 2195 
Q 3706 1856 3706 1288 
Q 3706 609 3251 259 
Q 2797 -91 1919 -91 
Q 1588 -91 1214 -16 
Q 841 59 441 206 
L 441 856 
Q 825 641 1194 531 
Q 1563 422 1919 422 
Q 2459 422 2753 634 
Q 3047 847 3047 1241 
Q 3047 1584 2836 1778 
Q 2625 1972 2144 2069 
L 1759 2144 
Q 1053 2284 737 2584 
Q 422 2884 422 3419 
Q 422 4038 858 4394 
Q 1294 4750 2059 4750 
Q 2388 4750 2728 4690 
Q 3069 4631 3425 4513 
z
" transform="scale(0.015625)"/>
      </defs>
      <use xlink:href="#DejaVuSans-53"/>
      <use xlink:href="#DejaVuSans-63" x="63.476562"/>
      <use xlink:href="#DejaVuSans-61" x="118.457031"/>
      <use xlink:href="#DejaVuSans-74" x="179.736328"/>
      <use xlink:href="#DejaVuSans-74" x="218.945312"/>
      <use xlink:href="#DejaVuSans-65" x="258.154297"/>
      <use xlink:href="#DejaVuSans-72" x="319.677734"/>
     </g>
    </g>
    <g id="line2d_16">
     <path d="M 66.6 69.248562 
L 76.6 69.248562 
L 86.6 69.248562 
" style="fill: none; stroke: #008000; stroke-width: 1.5; stroke-linecap: square"/>
    </g>
    <g id="text_19">
     <!-- Model -->
     <g transform="translate(94.6 72.748562) scale(0.1 -0.1)">
      <defs>
       <path id="DejaVuSans-4d" d="M 628 4666 
L 1569 4666 
L 2759 1491 
L 3956 4666 
L 4897 4666 
L 4897 0 
L 4281 0 
L 4281 4097 
L 3078 897 
L 2444 897 
L 1241 4097 
L 1241 0 
L 628 0 
L 628 4666 
z
" transform="scale(0.015625)"/>
      </defs>
      <use xlink:href="#DejaVuSans-4d"/>
      <use xlink:href="#DejaVuSans-6f" x="86.279297"/>
      <use xlink:href="#DejaVuSans-64" x="147.460938"/>
      <use xlink:href="#DejaVuSans-65" x="210.9375"/>
      <use xlink:href="#DejaVuSans-6c" x="272.460938"/>
     </g>
    </g>
   </g>
  </g>
 </g>
 <defs>
  <clipPath id="p52db8ad1dd">
   <rect x="57.6" y="41.472" width="357.12" height="266.112"/>
  </clipPath>
 </defs>
</svg>
